<svg width="18" height="18" viewBox="0 0 18 18" fill="none" xmlns="http://www.w3.org/2000/svg">
<path d="M9.88004 2.05001C13.06 2.45001 15.55 4.94001 15.95 8.12001C16.01 8.63001 16.44 9.00001 16.94 9.00001C16.98 9.00001 17.02 9.00001 17.06 8.99001C17.61 8.92001 18 8.42001 17.93 7.87001C17.42 3.78001 14.21 0.57001 10.12 0.0600097C9.57004 9.71928e-06 9.07004 0.39001 9.01004 0.94001C8.94004 1.49001 9.33004 1.99001 9.88004 2.05001ZM10.26 4.16001C9.73004 4.02001 9.18004 4.34001 9.04004 4.88001C8.90004 5.42001 9.22004 5.96001 9.76004 6.10001C10.81 6.37001 11.63 7.19001 11.91 8.25001C12.03 8.70001 12.43 9.00001 12.88 9.00001C12.96 9.00001 13.05 8.99001 13.13 8.97001C13.66 8.83001 13.98 8.28001 13.85 7.75001C13.38 5.98001 12.01 4.61001 10.26 4.16001ZM16.23 12.26L13.69 11.97C13.08 11.9 12.48 12.11 12.05 12.54L10.21 14.38C7.38004 12.94 5.06004 10.63 3.62004 7.79001L5.47004 5.94001C5.90004 5.51001 6.11004 4.91001 6.04004 4.30001L5.75004 1.78001C5.63004 0.77001 4.78004 0.0100098 3.76004 0.0100098H2.03004C0.900041 0.0100098 -0.0399593 0.95001 0.0300407 2.08001C0.560041 10.62 7.39004 17.44 15.92 17.97C17.05 18.04 17.99 17.1 17.99 15.97V14.24C18 13.23 17.24 12.38 16.23 12.26Z" fill="#323232"/>
</svg>
