<svg width="180" height="180" viewBox="0 0 180 180" fill="none" xmlns="http://www.w3.org/2000/svg">
<path d="M73.8217 15.8904C73.8217 15.8904 90.6409 12.4812 105.944 15.8904C115.301 17.9748 135.018 22.9176 139.669 34.1208C144.32 45.324 121.921 54.882 132.926 66.2472C137.675 71.1504 160.459 77.616 159.178 109.418C157.896 141.221 124.51 160.607 78.1129 159.743C31.7161 158.879 4.94286 116.69 22.8853 95.9148C40.8313 75.1392 48.5533 75.078 40.4209 58.1616C32.2885 41.2452 43.5781 20.7324 73.8217 15.8904Z" fill="#92E3A9"/>
<path opacity="0.7" d="M73.8217 15.8904C73.8217 15.8904 90.6409 12.4812 105.944 15.8904C115.301 17.9748 135.018 22.9176 139.669 34.1208C144.32 45.324 121.921 54.882 132.926 66.2472C137.675 71.1504 160.459 77.616 159.178 109.418C157.896 141.221 124.51 160.607 78.1129 159.743C31.7161 158.879 4.94286 116.69 22.8853 95.9148C40.8313 75.1392 48.5533 75.078 40.4209 58.1616C32.2885 41.2452 43.5781 20.7324 73.8217 15.8904Z" fill="white"/>
<path d="M41.7381 67.7485L44.8737 76.9069L29.8509 82.044L26.1357 71.1757L41.1549 66.0385L41.7381 67.7485Z" stroke="#263238" stroke-miterlimit="10" stroke-linecap="round" stroke-linejoin="round"/>
<path d="M43.3001 72.3097L44.8733 76.9069L29.8505 82.0441L29.0801 79.7905L32.1077 75.2041L37.0361 77.1229L40.5533 71.1901L43.3001 72.3097Z" stroke="#263238" stroke-miterlimit="10" stroke-linecap="round" stroke-linejoin="round"/>
<path d="M33.9187 71.7301C34.2103 72.5833 33.7567 73.5121 32.8999 73.8073C32.0467 74.0989 31.1179 73.6453 30.8227 72.7885C30.5311 71.9353 30.9847 71.0065 31.8415 70.7113C32.6983 70.4197 33.6271 70.8769 33.9187 71.7301Z" stroke="#263238" stroke-miterlimit="10" stroke-linecap="round" stroke-linejoin="round"/>
<path d="M131.245 142.92L129.171 152.377L113.666 148.979L116.121 137.761L131.63 141.156L131.245 142.92Z" stroke="#263238" stroke-miterlimit="10" stroke-linecap="round" stroke-linejoin="round"/>
<path d="M116.74 146.56L127.393 148.892" stroke="#263238" stroke-miterlimit="10" stroke-linecap="round" stroke-linejoin="round"/>
<path d="M117.611 141.588C117.611 141.588 116.528 146.538 122.057 147.748C127.59 148.957 128.674 144.011 128.674 144.011" stroke="#263238" stroke-miterlimit="10" stroke-linecap="round" stroke-linejoin="round"/>
<path d="M118.08 141.692C118.022 141.948 117.77 142.114 117.511 142.056C117.255 141.998 117.09 141.746 117.147 141.487C117.205 141.228 117.457 141.066 117.716 141.124C117.972 141.181 118.134 141.433 118.08 141.692Z" fill="white" stroke="#263238" stroke-miterlimit="10" stroke-linecap="round" stroke-linejoin="round"/>
<path d="M129.142 144.115C129.084 144.371 128.832 144.536 128.573 144.479C128.318 144.421 128.152 144.169 128.21 143.91C128.267 143.654 128.519 143.489 128.778 143.546C129.034 143.604 129.2 143.856 129.142 144.115Z" fill="white" stroke="#263238" stroke-miterlimit="10" stroke-linecap="round" stroke-linejoin="round"/>
<path d="M117.027 146.21L116.208 146.03L116.029 146.85L116.848 147.029L117.027 146.21Z" fill="white" stroke="#263238" stroke-miterlimit="10" stroke-linecap="round" stroke-linejoin="round"/>
<path d="M122.567 147.434L121.748 147.255L121.569 148.074L122.388 148.254L122.567 147.434Z" fill="white" stroke="#263238" stroke-miterlimit="10" stroke-linecap="round" stroke-linejoin="round"/>
<path d="M128.09 148.632L127.271 148.453L127.091 149.272L127.91 149.452L128.09 148.632Z" fill="white" stroke="#263238" stroke-miterlimit="10" stroke-linecap="round" stroke-linejoin="round"/>
<path d="M59.4893 40.0573L55.5689 48.9097L41.0537 42.4801L45.7049 31.9789L60.2201 38.4049L59.4893 40.0573Z" stroke="#263238" stroke-miterlimit="10" stroke-linecap="round" stroke-linejoin="round"/>
<path d="M51.8683 43.7077C51.5911 44.3377 50.5867 44.4997 49.6291 44.0785C48.6715 43.6537 48.1207 42.8005 48.3979 42.1741C48.6751 41.5441 49.6795 41.3821 50.6371 41.8033C51.5947 42.2245 52.1455 43.0777 51.8683 43.7077Z" fill="#263238"/>
<path d="M52.6023 36.7921L48.7287 42.3181L48.3975 42.1705L51.2307 38.1313L51.9651 37.0837C52.3359 36.9757 52.5735 36.8137 52.6023 36.7921Z" fill="#263238"/>
<path d="M52.5994 36.7957L51.6562 38.1277C51.6562 38.1277 51.4906 38.1529 51.2278 38.1313C50.9218 38.1061 50.4862 38.0197 50.0146 37.7641C49.1578 37.2961 48.427 37.8433 48.3838 37.8757C48.4306 37.8181 49.345 36.6769 50.605 37.0765C51.1306 37.2457 51.6058 37.1881 51.9622 37.0801C52.3366 36.9757 52.5742 36.8137 52.5994 36.7957Z" fill="#263238"/>
<path d="M156.251 111.82L152.87 120.892L137.995 115.348L142.006 104.584L156.881 110.128L156.251 111.82Z" stroke="#263238" stroke-miterlimit="10" stroke-linecap="round" stroke-linejoin="round"/>
<path d="M146.239 109.829L142.51 111.532L144.216 115.265" stroke="#263238" stroke-miterlimit="10" stroke-linecap="round" stroke-linejoin="round"/>
<path d="M148.223 116.755L151.952 115.052L150.249 111.319" stroke="#263238" stroke-miterlimit="10" stroke-linecap="round" stroke-linejoin="round"/>
<path d="M148.896 110.808L145.566 115.773" stroke="#263238" stroke-miterlimit="10" stroke-linecap="round" stroke-linejoin="round"/>
<path d="M141.408 27.5292L138.093 36.6264L123.178 31.1868L127.113 20.394L142.027 25.8336L141.408 27.5292Z" stroke="#263238" stroke-miterlimit="10" stroke-linecap="round" stroke-linejoin="round"/>
<path d="M130.842 28.2132C130.842 28.2132 130.666 27.1944 129.157 27.4176C127.768 27.6228 127.372 29.1888 128.545 29.6172C129.924 30.1212 131.008 28.9548 132.347 27.81C133.747 26.6112 135.022 25.3224 135.18 25.1676C135.18 25.1676 132.023 30.816 131.613 31.5612C131.202 32.3064 132.437 32.0328 132.66 31.7016" stroke="#263238" stroke-miterlimit="10" stroke-linecap="round" stroke-linejoin="round"/>
<path d="M136.174 29.8944C136.174 29.8944 134.799 28.962 133.665 30.3192C133.226 30.8448 133.456 31.4064 133.838 31.5468C134.806 31.8996 135.411 31.4748 136.433 29.988C136.433 29.988 135.018 31.9752 135.321 32.0868C135.774 32.2524 136.109 31.9104 136.109 31.9104" stroke="#263238" stroke-miterlimit="10" stroke-linecap="round" stroke-linejoin="round"/>
<path d="M131.919 28.3428L134.417 29.2536" stroke="#263238" stroke-miterlimit="10" stroke-linecap="round" stroke-linejoin="round"/>
<path d="M42.9697 132.639L27.4609 129.247L29.5741 119.574L45.1369 122.976L42.9697 132.639Z" stroke="#263238" stroke-miterlimit="10" stroke-linecap="round" stroke-linejoin="round"/>
<path d="M33.0918 121.993L42.1566 123.977" stroke="#263238" stroke-miterlimit="10" stroke-linecap="round" stroke-linejoin="round"/>
<path d="M31.627 122.584L41.9662 124.848" stroke="#263238" stroke-miterlimit="10" stroke-linecap="round" stroke-linejoin="round"/>
<path d="M31.4355 123.455L41.7747 125.716" stroke="#263238" stroke-miterlimit="10" stroke-linecap="round" stroke-linejoin="round"/>
<path d="M31.2451 124.326L41.5843 126.587" stroke="#263238" stroke-miterlimit="10" stroke-linecap="round" stroke-linejoin="round"/>
<path d="M31.0537 125.194L41.3929 127.455" stroke="#263238" stroke-miterlimit="10" stroke-linecap="round" stroke-linejoin="round"/>
<path d="M30.8672 126.065L41.2064 128.326" stroke="#263238" stroke-miterlimit="10" stroke-linecap="round" stroke-linejoin="round"/>
<path d="M30.6758 126.932L41.015 129.193" stroke="#263238" stroke-miterlimit="10" stroke-linecap="round" stroke-linejoin="round"/>
<path d="M30.4854 127.804L39.5502 129.787" stroke="#263238" stroke-miterlimit="10" stroke-linecap="round" stroke-linejoin="round"/>
<path d="M119.009 60.4692H60.9916L53.752 24.4548H126.249L119.009 60.4692Z" fill="#263238"/>
<path d="M59.1955 25.6249L48.5107 98.2837H131.491L120.806 25.6249" fill="#92E3A9"/>
<path opacity="0.3" d="M131.491 98.2837H48.5107L52.9783 67.8997H127.023L131.491 98.2837Z" fill="black" fill-opacity="0.7"/>
<path d="M59.1955 25.6249L48.5107 98.2837H131.491L120.806 25.6249" stroke="#263238" stroke-miterlimit="10" stroke-linecap="round" stroke-linejoin="round"/>
<path d="M118.549 25.6249H61.4527L51.5527 98.2837H128.449L118.549 25.6249Z" fill="#263238"/>
<path d="M112.907 31.1616H81.915L81.5622 30.3696C81.3678 29.9304 80.9322 29.646 80.4498 29.646H73.4118C73.0194 29.646 72.7026 29.9628 72.7026 30.3552V31.1652H67.0938C66.6618 31.1652 66.3414 31.5612 66.4242 31.9824L71.0034 54.7524H109.001L113.581 31.9824C113.66 31.5576 113.339 31.1616 112.907 31.1616Z" fill="#BFBFBF" stroke="#263238" stroke-miterlimit="10" stroke-linecap="round" stroke-linejoin="round"/>
<path d="M114.077 32.9077L113.681 34.8733L109.613 55.1017C109.49 55.7245 108.943 56.1744 108.306 56.1744H71.694C71.0568 56.1744 70.5096 55.7245 70.3872 55.1017L66.222 34.3945L65.9232 32.9077C65.8404 32.4865 66.1608 32.0905 66.5928 32.0905H113.407C113.839 32.0905 114.16 32.4865 114.077 32.9077Z" fill="white"/>
<path opacity="0.4" d="M113.68 34.8732L109.612 55.1016C109.49 55.7244 108.943 56.1744 108.306 56.1744H71.6937C71.0565 56.1744 70.5093 55.7244 70.3869 55.1016L66.2217 34.3944L113.68 34.8732Z" fill="#92E3A9"/>
<path d="M114.077 32.9077L113.681 34.8733L109.613 55.1017C109.49 55.7245 108.943 56.1745 108.306 56.1745H71.694C71.0568 56.1745 70.5096 55.7245 70.3872 55.1017L66.222 34.3945L65.9232 32.9077C65.8404 32.4865 66.1608 32.0905 66.5928 32.0905H113.407C113.839 32.0905 114.16 32.4865 114.077 32.9077Z" stroke="#263238" stroke-miterlimit="10" stroke-linecap="round" stroke-linejoin="round"/>
<path d="M113.458 36.4068H81.7237L81.3637 35.6148C81.1657 35.1756 80.7157 34.8912 80.2225 34.8912H73.0153C72.6157 34.8912 72.2881 35.208 72.2881 35.5968V36.4032H66.5425C66.1033 36.4032 65.7721 36.7956 65.8585 37.2168L70.5457 59.9184H109.455L114.142 37.2168C114.228 36.8028 113.897 36.4068 113.458 36.4068Z" fill="#BFBFBF" stroke="#263238" stroke-miterlimit="10" stroke-linecap="round" stroke-linejoin="round"/>
<path d="M114.653 38.2141L114.257 40.1365L110.085 60.3432C109.955 60.9624 109.397 61.4089 108.746 61.4089H71.2554C70.6038 61.4089 70.0458 60.9624 69.9162 60.3432L65.7294 40.0681L65.3478 38.2141C65.2614 37.7929 65.5926 37.3969 66.0318 37.3969H113.969C114.409 37.3969 114.74 37.7929 114.653 38.2141Z" fill="white"/>
<path opacity="0.4" d="M114.257 40.1364L110.085 60.3432C109.955 60.9624 109.397 61.4088 108.746 61.4088H71.2555C70.6039 61.4088 70.0459 60.9624 69.9163 60.3432L65.7295 40.068L114.257 40.1364Z" fill="#92E3A9"/>
<path d="M114.653 38.2141L114.257 40.1365L110.085 60.3432C109.955 60.9624 109.397 61.4089 108.746 61.4089H71.2554C70.6038 61.4089 70.0458 60.9624 69.9162 60.3432L65.7294 40.0681L65.3478 38.2141C65.2614 37.7929 65.5926 37.3969 66.0318 37.3969H113.969C114.409 37.3969 114.74 37.7929 114.653 38.2141Z" stroke="#263238" stroke-miterlimit="10" stroke-linecap="round" stroke-linejoin="round"/>
<path d="M114.006 41.652H81.5301L81.1629 40.8636C80.9577 40.4244 80.5005 40.1436 79.9965 40.1436H72.6201C72.2097 40.1436 71.8785 40.4604 71.8785 40.8492V41.6556H65.9997C65.5497 41.6556 65.2113 42.048 65.2977 42.4656L70.0965 65.0988H109.913L114.711 42.4656C114.794 42.0444 114.456 41.652 114.006 41.652Z" fill="#BFBFBF" stroke="#263238" stroke-miterlimit="10" stroke-linecap="round" stroke-linejoin="round"/>
<path d="M114.531 42.7068H65.4704C65.0204 42.7068 64.682 43.0992 64.7684 43.5168L69.4448 65.5812C69.5744 66.2004 70.1504 66.6468 70.8164 66.6468H109.185C109.851 66.6468 110.424 66.2004 110.557 65.5812L115.233 43.5168C115.32 43.0992 114.981 42.7068 114.531 42.7068Z" fill="white" stroke="#263238" stroke-miterlimit="10" stroke-linecap="round" stroke-linejoin="round"/>
<path d="M114.556 45.8172H81.335L80.957 45.0324C80.7482 44.5968 80.2802 44.3124 79.7618 44.3124H72.2162C71.795 44.3124 71.4566 44.6256 71.4566 45.0144V45.8172H65.4446C64.9838 45.8172 64.6382 46.2096 64.7282 46.6272L69.635 69.192H110.362L115.269 46.6272C115.362 46.2096 115.017 45.8172 114.556 45.8172Z" fill="#BFBFBF" stroke="#263238" stroke-miterlimit="10" stroke-linecap="round" stroke-linejoin="round"/>
<path d="M115.092 46.9332H64.9085C64.4477 46.9332 64.1021 47.3256 64.1921 47.7432L68.9765 69.7428C69.1097 70.3584 69.6965 70.8048 70.3769 70.8048H109.624C110.304 70.8048 110.891 70.362 111.024 69.7428L115.809 47.7432C115.899 47.3256 115.553 46.9332 115.092 46.9332Z" fill="white" stroke="#263238" stroke-miterlimit="10" stroke-linecap="round" stroke-linejoin="round"/>
<path d="M115.103 49.9824H81.1408L80.7556 49.1976C80.5432 48.762 80.0644 48.4812 79.5352 48.4812H71.8204C71.392 48.4812 71.0428 48.7944 71.0428 49.1832V49.9824H64.894C64.4224 49.9824 64.0696 50.3712 64.1596 50.7888L69.1744 73.2888H110.812L115.827 50.7888C115.928 50.3748 115.575 49.9824 115.103 49.9824Z" fill="#BFBFBF" stroke="#263238" stroke-miterlimit="10" stroke-linecap="round" stroke-linejoin="round"/>
<path d="M115.651 51.1632H64.351C63.8794 51.1632 63.523 51.552 63.6166 51.9696L64.819 57.366L68.5054 73.9008C68.6458 74.5164 69.2434 74.9592 69.9382 74.9592H110.064C110.759 74.9592 111.356 74.5164 111.497 73.9008L113.304 65.79L116.385 51.9696C116.479 51.552 116.123 51.1632 115.651 51.1632Z" fill="white"/>
<path opacity="0.4" d="M64.8193 57.366L68.5057 73.9008C68.6461 74.5164 69.2437 74.9592 69.9385 74.9592H110.064C110.759 74.9592 111.357 74.5164 111.497 73.9008L113.304 65.79L64.8193 57.366Z" fill="#92E3A9"/>
<path d="M115.651 51.1632H64.351C63.8794 51.1632 63.523 51.552 63.6166 51.9696L64.819 57.366L68.5054 73.9008C68.6458 74.5164 69.2434 74.9592 69.9382 74.9592H110.064C110.759 74.9592 111.356 74.5164 111.497 73.9008L113.304 65.79L116.385 51.9696C116.479 51.552 116.123 51.1632 115.651 51.1632Z" stroke="#263238" stroke-miterlimit="10" stroke-linecap="round" stroke-linejoin="round"/>
<path d="M79.8375 75.7404L79.3839 74.9844C79.1318 74.5668 78.5991 74.3112 78.0267 74.34L69.6459 74.7252C69.1815 74.7468 68.8179 75.0744 68.8323 75.456L68.8683 76.2444L62.1903 76.5504C61.6791 76.5756 61.3119 76.9752 61.4307 77.382L67.8999 99.3384L113.134 97.2612L117.562 74.8044C117.645 74.3868 117.241 74.0196 116.73 74.0448L79.8375 75.7404Z" fill="#BFBFBF" stroke="#263238" stroke-miterlimit="10" stroke-linecap="round" stroke-linejoin="round"/>
<path d="M118.224 76.2012L117.713 78.786L113.908 98.0928C113.785 98.7084 113.155 99.1728 112.399 99.2088L68.8142 101.21C68.0582 101.246 67.385 100.84 67.2086 100.238L61.193 79.8264L60.9014 78.8364C60.7826 78.4296 61.1498 78.0264 61.661 78.0048L117.393 75.4416C117.907 75.42 118.307 75.7872 118.224 76.2012Z" fill="white"/>
<path opacity="0.4" d="M117.713 78.786L113.908 98.0928C113.786 98.7084 113.156 99.1728 112.4 99.2088L68.8146 101.21C68.0586 101.246 67.3854 100.84 67.209 100.238L61.1934 79.8264L117.713 78.786Z" fill="#92E3A9"/>
<path d="M118.224 76.2012L117.713 78.786L113.908 98.0928C113.785 98.7084 113.155 99.1728 112.399 99.2088L68.8142 101.21C68.0582 101.246 67.385 100.84 67.2086 100.238L61.193 79.8264L60.9014 78.8364C60.7826 78.4296 61.1498 78.0264 61.661 78.0048L117.393 75.4416C117.907 75.42 118.307 75.7872 118.224 76.2012Z" stroke="#263238" stroke-miterlimit="10" stroke-linecap="round" stroke-linejoin="round"/>
<path d="M80.799 80.7516L80.4138 79.9596C80.1978 79.5204 79.683 79.2144 79.0998 79.1856L70.5534 78.7392C70.0782 78.714 69.675 79.002 69.657 79.3836L69.6174 80.172L62.8062 79.8156C62.2842 79.7868 61.8702 80.1504 61.953 80.568L66.3522 102.989L112.479 105.401L119.193 83.5596C119.319 83.1564 118.945 82.7496 118.423 82.7244L80.799 80.7516Z" fill="#BFBFBF" stroke="#263238" stroke-miterlimit="10" stroke-linecap="round" stroke-linejoin="round"/>
<path d="M119.722 85.0752L118.628 88.632L113.177 106.366C112.994 106.963 112.306 107.366 111.536 107.323L67.0867 105.001C66.3163 104.962 65.6755 104.49 65.5531 103.878L61.7911 84.7008L61.2655 82.0188C61.1827 81.6048 61.5967 81.2412 62.1187 81.27L118.952 84.24C119.474 84.2688 119.848 84.672 119.722 85.0752Z" fill="white"/>
<path opacity="0.4" d="M118.628 88.632L113.177 106.366C112.994 106.963 112.306 107.366 111.536 107.323L67.0866 105.001C66.3162 104.962 65.6754 104.49 65.553 103.878L61.791 84.7008L118.628 88.632Z" fill="#92E3A9"/>
<path d="M119.722 85.0752L118.628 88.632L113.177 106.366C112.994 106.963 112.306 107.366 111.536 107.323L67.0867 105.001C66.3163 104.962 65.6755 104.49 65.5531 103.878L61.7911 84.7008L61.2655 82.0188C61.1827 81.6048 61.5967 81.2412 62.1187 81.27L118.952 84.24C119.474 84.2688 119.848 84.672 119.722 85.0752Z" stroke="#263238" stroke-miterlimit="10" stroke-linecap="round" stroke-linejoin="round"/>
<path d="M79.9778 86.4936L79.5422 85.7232C79.301 85.2948 78.761 85.0212 78.1634 85.0212H69.437C68.951 85.0212 68.5586 85.3308 68.5586 85.7088V86.4936H61.6034C61.0706 86.4936 60.671 86.8752 60.7754 87.2856L66.449 109.379H113.551L119.225 87.2856C119.329 86.8752 118.93 86.4936 118.397 86.4936H79.9778Z" fill="#BFBFBF" stroke="#263238" stroke-miterlimit="10" stroke-linecap="round" stroke-linejoin="round"/>
<path d="M112.695 111.416H67.3066C66.5182 111.416 65.8414 110.981 65.6866 110.376L60.1534 88.8372C60.049 88.4268 60.4486 88.0452 60.9814 88.0452H119.013C119.546 88.0452 119.946 88.4268 119.841 88.8372L114.308 110.376C114.161 110.981 113.48 111.416 112.695 111.416Z" fill="white" stroke="#263238" stroke-miterlimit="10" stroke-linecap="round" stroke-linejoin="round"/>
<path d="M79.7839 91.7388L79.3412 90.972C79.0963 90.5472 78.5419 90.27 77.9335 90.27H69.038C68.5448 90.27 68.1415 90.576 68.1415 90.954V91.7388H61.0568C60.5132 91.7388 60.1063 92.1204 60.2107 92.5272L65.996 114.552H114.009L119.794 92.5272C119.902 92.1204 119.492 91.7388 118.948 91.7388H79.7839Z" fill="#BFBFBF" stroke="#263238" stroke-miterlimit="10" stroke-linecap="round" stroke-linejoin="round"/>
<path d="M113.134 116.654H66.8669C66.0641 116.654 65.3729 116.222 65.2145 115.618L59.5769 94.1472C59.4689 93.7404 59.8793 93.3588 60.4229 93.3588H119.578C120.122 93.3588 120.529 93.7404 120.424 94.1472L114.787 115.618C114.625 116.219 113.933 116.654 113.134 116.654Z" fill="white" stroke="#263238" stroke-miterlimit="10" stroke-linecap="round" stroke-linejoin="round"/>
<path d="M122.534 141.469H57.4672L43.2256 101.081H136.775L122.534 141.469Z" fill="#92E3A9"/>
<path opacity="0.3" d="M122.534 141.469H57.4672L43.2256 101.081H136.775L122.534 141.469Z" fill="black" fill-opacity="0.7"/>
<path d="M122.534 141.469H57.4672L43.2256 101.081H136.775L122.534 141.469Z" stroke="#263238" stroke-miterlimit="10" stroke-linecap="round" stroke-linejoin="round"/>
<path d="M135.537 95.7637H44.464L43.2256 101.081H136.775L135.537 95.7637Z" fill="#92E3A9" stroke="#263238" stroke-miterlimit="10" stroke-linecap="round" stroke-linejoin="round"/>
<path d="M67.4176 119.585L66.5068 128.207H113.494L112.583 119.585H110.51L111.1 125.737H68.9008L69.4912 119.585H67.4176Z" fill="#BFBFBF" stroke="#263238" stroke-miterlimit="10" stroke-linecap="round" stroke-linejoin="round"/>
<path d="M113.141 130.187H66.8596L66.5068 128.207H113.494L113.141 130.187Z" fill="#757575" stroke="#263238" stroke-miterlimit="10" stroke-linecap="round" stroke-linejoin="round"/>
<path d="M110.509 119.585L110.218 121.871L110.509 125.737H111.1L110.509 119.585Z" fill="#757575" stroke="#263238" stroke-miterlimit="10" stroke-linecap="round" stroke-linejoin="round"/>
<path d="M69.4908 119.585L69.7824 121.871L69.4908 125.737H68.9004L69.4908 119.585Z" fill="#757575" stroke="#263238" stroke-miterlimit="10" stroke-linecap="round" stroke-linejoin="round"/>
<path d="M105.138 115.258H74.8622L73.415 107.942H106.585L105.138 115.258Z" fill="white" stroke="#263238" stroke-miterlimit="10" stroke-linecap="round" stroke-linejoin="round"/>
<path d="M92.0267 44.4708L91.7279 43.6248C91.5623 43.1568 91.1015 42.8076 90.5543 42.7356L82.5479 41.7024C82.1015 41.6448 81.7019 41.9148 81.6515 42.3072L81.5471 43.1172L75.1679 42.2964C74.6783 42.2316 74.2607 42.5808 74.3039 43.0164L76.5719 66.4668L119.779 72.036L127.919 49.9284C128.07 49.518 127.753 49.0752 127.263 49.014L92.0267 44.4708Z" fill="white"/>
<path opacity="0.4" d="M92.0267 44.4708L91.7279 43.6248C91.5623 43.1568 91.1015 42.8076 90.5543 42.7356L82.5479 41.7024C82.1015 41.6448 81.7019 41.9148 81.6515 42.3072L81.5471 43.1172L75.1679 42.2964C74.6783 42.2316 74.2607 42.5808 74.3039 43.0164L76.5719 66.4668L119.779 72.036L127.919 49.9284C128.07 49.518 127.753 49.0752 127.263 49.014L92.0267 44.4708Z" fill="#92E3A9"/>
<path d="M92.0267 44.4708L91.7279 43.6248C91.5623 43.1568 91.1015 42.8076 90.5543 42.7356L82.5479 41.7024C82.1015 41.6448 81.7019 41.9148 81.6515 42.3072L81.5471 43.1172L75.1679 42.2964C74.6783 42.2316 74.2607 42.5808 74.3039 43.0164L76.5719 66.4668L119.779 72.036L127.919 49.9284C128.07 49.518 127.753 49.0752 127.263 49.014L92.0267 44.4708Z" stroke="#263238" stroke-miterlimit="10" stroke-linecap="round" stroke-linejoin="round"/>
<path d="M128.333 51.2605L120.963 71.2729L120.395 72.8137C120.171 73.4185 119.491 73.7857 118.771 73.6921L77.1333 68.3281C76.4133 68.2345 75.8481 67.7053 75.7869 67.0645L73.5729 44.2045C73.5333 43.7689 73.9509 43.4233 74.4405 43.4845L109.872 48.0529L127.677 50.3461C128.167 50.4109 128.484 50.8537 128.333 51.2605Z" fill="white"/>
<path opacity="0.3" d="M128.332 51.2605L120.963 71.2729C115.739 70.0381 115.541 66.7837 114.666 65.0989C113.702 63.2413 107.585 62.2549 105.875 61.9561C104.165 61.6537 103.125 59.9257 103.125 59.9257C101.584 55.5985 109.626 51.8257 109.626 51.8257C109.468 51.2317 109.702 49.2841 109.871 48.0529L127.677 50.3461C128.166 50.4109 128.483 50.8537 128.332 51.2605Z" fill="black" fill-opacity="0.7"/>
<path d="M128.333 51.2605L120.963 71.2729L120.395 72.8137C120.171 73.4185 119.491 73.7857 118.771 73.6921L77.1333 68.3281C76.4133 68.2345 75.8481 67.7053 75.7869 67.0645L73.5729 44.2045C73.5333 43.7689 73.9509 43.4233 74.4405 43.4845L109.872 48.0529L127.677 50.3461C128.167 50.4109 128.484 50.8537 128.333 51.2605Z" stroke="#263238" stroke-miterlimit="10" stroke-linecap="round" stroke-linejoin="round"/>
<path d="M81.4033 50.364L81.9721 64.512L87.1021 65.1744L87.7033 51.0768L81.4033 50.364Z" fill="#92E3A9" stroke="#263238" stroke-miterlimit="10" stroke-linecap="round" stroke-linejoin="round"/>
<path d="M84.531 63.4716C84.6894 62.9784 84.549 62.4312 84.2826 61.992C84.0126 61.5528 83.6238 61.1964 83.2422 60.8508C83.8362 61.1928 84.4986 61.4088 85.179 61.488C85.1718 60.75 84.4698 60.2388 83.8434 59.8536C84.1242 59.742 84.4554 59.7672 84.7146 59.9184C84.7362 59.6916 84.639 59.454 84.459 59.31C84.5382 59.3784 84.6606 59.2704 84.657 59.1696C84.6534 59.0652 84.5814 58.9824 84.531 58.8924C84.4158 58.6872 84.4158 58.4352 84.4194 58.1976C84.4302 57.3516 84.4446 56.5056 84.4554 55.656C84.477 55.8108 84.5994 55.944 84.7506 55.9836C84.7398 55.6488 84.7074 55.314 84.6786 54.9792C84.5994 54.1332 84.5166 53.2836 84.4374 52.4376" stroke="#263238" stroke-miterlimit="10" stroke-linecap="round" stroke-linejoin="round"/>
<path d="M165.975 96.3647C165.975 96.3647 136.923 70.3727 135.069 68.7347C133.218 67.0967 131.865 67.1687 130.867 66.1715C129.87 65.1743 129.373 64.4615 125.313 64.5335C121.255 64.6055 115.841 62.3987 114.631 61.6139C113.422 60.8291 111.712 61.4015 110.574 60.9587C109.437 60.5159 106.517 60.9047 104.735 60.9587C102.953 61.0127 102.813 59.1947 103.525 57.1283C104.238 55.0619 109.649 53.7803 110.362 54.2087C111.075 54.6371 113.922 53.4239 113.922 53.4239C113.494 51.9299 113.638 48.2975 113.638 48.2975C113.638 48.2975 110.646 47.0159 109.509 46.5875C108.371 46.1591 106.801 46.3031 106.801 46.3031C106.801 46.3031 107.158 44.6687 107.727 44.0639C108.295 43.4555 111.003 42.8867 113.638 41.0363C116.273 39.1859 117.911 38.7575 118.336 38.9015C118.761 39.0455 121.684 39.8987 122.465 39.8987C123.25 39.8987 124.387 39.1859 125.529 39.4019C126.67 39.6179 128.733 41.3963 129.658 41.6087C130.583 41.8211 130.864 42.0155 132.081 42.0155C132.613 42.0155 134.788 43.6031 134.788 43.6031C134.788 43.6031 136.069 43.8155 137.423 44.4563C138.777 45.0971 140.199 48.1607 140.839 49.1579C141.48 50.1551 141.552 52.5743 141.552 52.5743C141.552 52.5743 143.262 53.4995 143.903 54.7811C144.544 56.0627 168.113 68.7383 168.113 68.7383C168.113 68.7383 171.839 83.3111 165.975 96.3647Z" fill="white"/>
<path opacity="0.4" d="M145.275 77.85C140.069 73.1916 135.749 69.3324 135.072 68.7348C133.218 67.0968 131.868 67.1688 130.871 66.1716C129.874 65.1744 129.373 64.4652 125.316 64.5336C121.255 64.6056 115.845 62.3988 114.635 61.614C113.425 60.8328 111.715 61.4016 110.574 60.9588C109.437 60.516 106.517 60.9048 104.735 60.9588C102.957 61.0128 102.813 59.1948 103.525 57.1284C104.238 55.0656 109.649 53.784 110.362 54.2088C111.075 54.6372 113.922 53.4276 113.922 53.4276C113.494 51.93 113.638 48.2976 113.638 48.2976C113.638 48.2976 110.646 47.016 109.509 46.5912C108.367 46.1628 106.801 46.3068 106.801 46.3068C106.801 46.3068 107.158 44.6724 107.727 44.064C108.295 43.4556 111.003 42.8868 113.638 41.0364C116.273 39.186 117.911 38.7576 118.336 38.898C118.764 39.042 121.684 39.8952 122.469 39.8952C123.063 39.8952 123.865 39.4848 124.719 39.3804C124.027 39.7656 123.549 40.5 123.678 40.8924C123.883 41.5116 124.463 43.0884 124.495 43.1892C124.341 43.038 120.607 39.3516 118.195 39.5424C116.111 39.7044 113.994 43.2144 114.351 45.792C114.707 48.3696 113.843 48.3696 114.311 50.292C114.775 52.2144 115.204 54.9216 114.491 55.9908C113.778 57.0564 112.356 55.1592 112.356 55.1592C112.356 55.1592 110.553 56.0628 110.553 58.1256C110.553 60.192 112.695 60.3324 113.987 60.5484C115.276 60.7608 119.963 63.3384 123.174 63.4752C126.385 63.6084 126.385 63.6084 126.385 63.6084C126.385 63.6084 124.531 61.0848 125.316 60.9588C126.097 60.8328 128.448 61.0596 130.014 63.4752C131.584 65.8872 132.75 66.4308 135.619 67.6188C137.275 68.3028 141.747 73.1304 145.275 77.85Z" fill="#92E3A9"/>
<path opacity="0.4" d="M159.502 64.044C159.066 63.8388 145.102 57.258 144.4 56.2752C143.687 55.278 142.834 55.0512 142.049 54.0612C141.268 53.0712 138.633 52.4304 138.276 51.0768C137.92 49.7232 137.491 45.6156 136.851 45.108C136.21 44.5968 135.144 44.064 135.144 44.064L136.203 46.7028C136.203 46.7028 133.791 43.2864 133.218 43.1928C132.649 43.1028 133.837 45.6768 133.733 45.5976C133.665 45.5472 131.015 43.0776 128.826 41.2272C129.15 41.4144 129.438 41.5548 129.658 41.6052C130.587 41.8176 130.867 42.012 132.081 42.012C132.613 42.012 134.788 43.5996 134.788 43.5996C134.788 43.5996 136.069 43.812 137.423 44.4528C138.773 45.0936 140.199 48.1572 140.839 49.1544C141.48 50.1516 141.552 52.5708 141.552 52.5708C141.552 52.5708 143.262 53.496 143.903 54.7776C144.281 55.5372 152.701 60.2928 159.502 64.044Z" fill="#92E3A9"/>
<path opacity="0.4" d="M159.513 64.0475C159.513 64.0475 159.509 64.0475 159.502 64.0439C159.506 64.0439 159.509 64.0439 159.509 64.0439C159.513 64.0475 159.513 64.0475 159.513 64.0475Z" fill="#92E3A9"/>
<path d="M165.975 96.3647C165.975 96.3647 136.923 70.3727 135.069 68.7347C133.218 67.0967 131.865 67.1687 130.867 66.1715C129.87 65.1743 129.373 64.4615 125.313 64.5335C121.255 64.6055 115.841 62.3987 114.631 61.6139C113.422 60.8291 111.712 61.4015 110.574 60.9587C109.437 60.5159 106.517 60.9047 104.735 60.9587C102.953 61.0127 102.813 59.1947 103.525 57.1283C104.238 55.0619 109.649 53.7803 110.362 54.2087C111.075 54.6371 113.922 53.4239 113.922 53.4239C113.494 51.9299 113.638 48.2975 113.638 48.2975C113.638 48.2975 110.646 47.0159 109.509 46.5875C108.371 46.1591 106.801 46.3031 106.801 46.3031C106.801 46.3031 107.158 44.6687 107.727 44.0639C108.295 43.4555 111.003 42.8867 113.638 41.0363C116.273 39.1859 117.911 38.7575 118.336 38.9015C118.761 39.0455 121.684 39.8987 122.465 39.8987C123.25 39.8987 124.387 39.1859 125.529 39.4019C126.67 39.6179 128.733 41.3963 129.658 41.6087C130.583 41.8211 130.864 42.0155 132.081 42.0155C132.613 42.0155 134.788 43.6031 134.788 43.6031C134.788 43.6031 136.069 43.8155 137.423 44.4563C138.777 45.0971 140.199 48.1607 140.839 49.1579C141.48 50.1551 141.552 52.5743 141.552 52.5743C141.552 52.5743 143.262 53.4995 143.903 54.7811C144.544 56.0627 168.113 68.7383 168.113 68.7383" stroke="#263238" stroke-miterlimit="10" stroke-linecap="round" stroke-linejoin="round"/>
<path d="M113.638 48.2976C113.638 48.2976 113.969 45.4968 113.638 45.1044" stroke="#263238" stroke-miterlimit="10" stroke-linecap="round" stroke-linejoin="round"/>
<path d="M122.418 41.4396C122.418 41.4396 127.26 45.54 127.642 45.792" stroke="#263238" stroke-miterlimit="10" stroke-linecap="round" stroke-linejoin="round"/>
<path d="M126.969 40.0608C127.635 40.4784 133.006 45.2376 134.763 46.3284" stroke="#263238" stroke-miterlimit="10" stroke-linecap="round" stroke-linejoin="round"/>
<path d="M141.552 52.5708C141.03 52.2612 139.655 51.5988 139.511 51.0768" stroke="#263238" stroke-miterlimit="10" stroke-linecap="round" stroke-linejoin="round"/>
<path d="M113.922 53.4275C113.922 53.4275 114.206 54.5903 113.922 55.1591" stroke="#263238" stroke-miterlimit="10" stroke-linecap="round" stroke-linejoin="round"/>
<path d="M109.649 57.1067C109.649 57.1067 108.983 58.9571 110.553 60.1919" stroke="#263238" stroke-miterlimit="10" stroke-linecap="round" stroke-linejoin="round"/>
<path d="M116.108 39.5424C115.301 40.3488 115.157 41.4396 115.157 41.4396" stroke="#263238" stroke-miterlimit="10" stroke-linecap="round" stroke-linejoin="round"/>
<path d="M108.702 45.1079C108.702 45.1079 109.084 46.3967 110.553 47.0051" stroke="#263238" stroke-miterlimit="10" stroke-linecap="round" stroke-linejoin="round"/>
<path d="M130.014 65.3795C129.017 63.7991 126.969 61.5671 126.969 61.5671" stroke="#263238" stroke-miterlimit="10" stroke-linecap="round" stroke-linejoin="round"/>
<path d="M30.416 160.312C30.416 160.312 53.672 145.026 55.0976 143.053C56.5232 141.08 57.6608 140.184 57.6608 140.184C57.6608 140.184 58.3268 134.489 60.0332 131.544C61.7432 128.599 62.4056 126.418 63.1652 124.898C63.9248 123.379 67.532 122.242 68.576 121.669C69.62 121.1 71.4236 119.959 72.4676 119.959C73.5116 119.959 74.7464 120.625 74.7464 120.625C74.7464 120.625 78.26 118.822 79.8728 119.959C79.8728 119.959 83.8616 120.15 84.8084 120.053C85.7588 119.959 87.1808 120.622 87.1808 120.622C87.1808 120.622 89.5532 118.919 91.1696 119.581C92.7824 120.244 93.5528 120.528 93.596 121.478C93.6392 122.429 93.1964 125.658 93.1964 125.658H92.4044C92.4044 125.658 89.7476 129.114 89.4596 129.809C89.1752 130.5 87.656 134.298 87.656 134.298C87.656 134.298 89.6504 132.779 90.8852 131.641C92.12 130.504 94.3016 128.318 96.5804 127.75C98.8592 127.181 100.472 128.455 100.472 129.812C100.472 129.812 97.8152 131.929 97.2428 132.595C96.674 133.261 95.6444 134.968 94.496 136.202C93.3476 137.437 90.6908 142.564 88.412 145.033C86.1332 147.503 76.1648 152.82 73.886 153.58C73.886 153.58 60.0224 163.264 53.9492 171.428C53.9564 171.418 37.436 171.515 30.416 160.312Z" fill="white"/>
<path opacity="0.4" d="M75.5093 151.481C75.7073 151.682 76.5173 151.805 77.6585 151.826C75.9809 152.687 74.5841 153.338 73.8929 153.569C73.8929 153.569 64.8281 159.901 58.1465 166.644C60.4469 162.983 64.8641 158.414 66.5057 157.464C68.7917 156.132 73.1837 151.834 73.1837 151.834C73.1837 151.834 74.8505 150.815 75.5093 151.481Z" fill="#92E3A9"/>
<path opacity="0.4" d="M90.8889 131.638C91.6413 130.943 92.7429 129.863 94.0065 128.999C92.1921 130.9 91.1841 133.348 91.1841 133.348C90.7449 135.734 86.6265 140.656 86.6265 140.656C87.9549 136.386 86.8137 135.529 87.1881 134.294C87.5589 133.063 87.8037 130.032 87.8037 130.032C87.8037 130.032 88.5237 128.79 89.2833 128.506C90.0429 128.218 92.0373 123.188 92.4081 122.508C92.7825 121.828 89.9493 120.719 89.1897 120.625C88.4301 120.528 88.1457 121.856 86.6265 122.508C85.1073 123.156 83.1993 124.355 82.4973 125.053C81.8205 125.73 80.5749 128.84 80.4957 129.031C80.5497 128.815 81.4101 125.348 81.6333 124.657C81.8205 124.081 83.6457 123.019 84.3225 122.641C83.1993 123.163 82.5693 122.173 81.6333 121.273C80.6289 120.308 79.1313 120.002 77.4933 120.503C75.8553 121.003 74.7573 122.238 74.7501 122.144C74.7429 122.047 72.3021 121.622 71.5209 121.856C70.7397 122.094 68.9001 122.918 68.9001 122.918C68.9001 122.918 67.2369 121.961 64.5045 124.657C63.3633 125.784 59.5653 134.392 60.1341 133.348C60.6885 132.336 63.1833 129.244 63.3381 129.053C63.1617 129.456 58.1253 140.767 57.0957 141.469C56.0517 142.186 55.7673 144.738 52.0665 146.83C48.5457 148.813 34.9665 157.349 33.6201 158.195C40.0497 153.925 54.0033 144.569 55.0941 143.053C56.5197 141.08 57.6573 140.184 57.6573 140.184C57.6573 140.184 58.3233 134.485 60.0333 131.544C61.7433 128.599 62.4057 126.414 63.1653 124.895C63.9249 123.376 67.5321 122.238 68.5761 121.669C69.6237 121.097 71.4273 119.959 72.4713 119.959C73.5153 119.959 74.7501 120.625 74.7501 120.625C74.7501 120.625 78.2637 118.818 79.8765 119.959C79.8765 119.959 83.8653 120.15 84.8121 120.053C85.7625 119.959 87.1881 120.625 87.1881 120.625C87.1881 120.625 89.5605 118.919 91.1733 119.581C92.7897 120.244 93.5565 120.528 93.5997 121.478C93.6429 122.429 93.2001 125.654 93.2001 125.654H92.4081C92.4081 125.654 89.7513 129.114 89.4669 129.805C89.1825 130.496 87.6633 134.294 87.6633 134.294C87.6633 134.294 89.6541 132.775 90.8889 131.638Z" fill="#92E3A9"/>
<path opacity="0.4" d="M100.479 129.805C100.479 129.805 97.8227 131.922 97.2503 132.588C96.9083 132.988 96.4007 133.765 95.7959 134.59C96.2711 133.092 96.4043 131.638 96.4043 131.638C96.4043 131.638 97.2575 130.309 98.6831 129.834C99.2555 129.643 99.9035 129.636 100.472 129.697C100.479 129.733 100.479 129.769 100.479 129.805Z" fill="#92E3A9"/>
<path d="M30.416 160.312C30.416 160.312 53.672 145.026 55.0976 143.053C56.5232 141.08 57.6608 140.184 57.6608 140.184C57.6608 140.184 58.3268 134.489 60.0332 131.544C61.7432 128.599 62.4056 126.418 63.1652 124.898C63.9248 123.379 67.532 122.242 68.576 121.669C69.62 121.1 71.4236 119.959 72.4676 119.959C73.5116 119.959 74.7464 120.625 74.7464 120.625C74.7464 120.625 78.26 118.822 79.8728 119.959C79.8728 119.959 83.8616 120.15 84.8084 120.053C85.7588 119.959 87.1808 120.622 87.1808 120.622C87.1808 120.622 89.5532 118.919 91.1696 119.581C92.7824 120.244 93.5528 120.528 93.596 121.478C93.6392 122.429 93.1964 125.658 93.1964 125.658H92.4044C92.4044 125.658 89.7476 129.114 89.4596 129.809C89.1752 130.5 87.656 134.298 87.656 134.298C87.656 134.298 89.6504 132.779 90.8852 131.641C92.12 130.504 94.3016 128.318 96.5804 127.75C98.8592 127.181 100.472 128.455 100.472 129.812C100.472 129.812 97.8152 131.929 97.2428 132.595C96.674 133.261 95.6444 134.968 94.496 136.202C93.3476 137.437 90.6908 142.564 88.412 145.033C86.1332 147.503 76.1648 152.82 73.886 153.58C73.886 153.58 60.0224 163.264 53.9492 171.428" stroke="#263238" stroke-miterlimit="10" stroke-linecap="round" stroke-linejoin="round"/>
<path d="M87.6635 134.294C87.6635 134.294 88.2323 137.142 87.0947 139.705" stroke="#263238" stroke-miterlimit="10" stroke-linecap="round" stroke-linejoin="round"/>
<path d="M83.959 122.807C83.959 122.807 85.5718 122.141 87.1882 120.622" stroke="#263238" stroke-miterlimit="10" stroke-linecap="round" stroke-linejoin="round"/>
<path d="M92.4082 125.654C92.4082 125.654 92.9302 124.61 93.0238 123.66" stroke="#263238" stroke-miterlimit="10" stroke-linecap="round" stroke-linejoin="round"/>
<path d="M79.8767 119.959C79.8767 119.959 78.0263 119.866 76.6943 121.05" stroke="#263238" stroke-miterlimit="10" stroke-linecap="round" stroke-linejoin="round"/>
<path d="M74.7497 120.625C74.7497 120.625 71.9021 121.954 70.9049 121.954C69.9077 121.954 68.2949 123.282 68.2949 123.664" stroke="#263238" stroke-miterlimit="10" stroke-linecap="round" stroke-linejoin="round"/>
<path d="M57.6572 140.184C57.6572 140.184 58.9388 138.287 59.6984 136.055" stroke="#263238" stroke-miterlimit="10" stroke-linecap="round" stroke-linejoin="round"/>
<path d="M84.5742 123.664C84.5742 123.664 82.7706 124.139 82.1514 125.658C81.5358 127.177 78.6846 132.448 78.6846 132.448" stroke="#263238" stroke-miterlimit="10" stroke-linecap="round" stroke-linejoin="round"/>
<path d="M75.5096 122.807C75.128 123.71 70.8584 131.638 70.8584 131.638" stroke="#263238" stroke-miterlimit="10" stroke-linecap="round" stroke-linejoin="round"/>
</svg>
