<svg width="271" height="180" viewBox="0 0 271 180" fill="none" xmlns="http://www.w3.org/2000/svg">
<path d="M251.501 67.8672C251.501 67.8672 213.521 26.3556 155.525 12.2256C97.5295 -1.90444 88.9903 44.334 72.5023 62.568C56.0107 80.8055 25.9867 78.7607 11.2663 101.135C-3.45414 123.509 12.7387 162.961 84.8683 172.969C156.998 182.981 152.581 144.41 197.332 151.477C242.08 158.548 293.603 120.568 251.501 67.8672Z" fill="#92E3A9"/>
<path opacity="0.7" d="M251.501 67.8672C251.501 67.8672 213.521 26.3556 155.525 12.2256C97.5295 -1.90444 88.9903 44.334 72.5023 62.568C56.0107 80.8055 25.9867 78.7607 11.2663 101.135C-3.45414 123.509 12.7387 162.961 84.8683 172.969C156.998 182.981 152.581 144.41 197.332 151.477C242.08 158.548 293.603 120.568 251.501 67.8672Z" fill="white"/>
<path d="M11.0469 137.981H260.491" stroke="#1B1F29" stroke-miterlimit="10" stroke-linecap="round" stroke-linejoin="round"/>
<path d="M210.894 48.1752V139.482H247.678V48.1752H210.894ZM244.798 136.854H213.774V50.8068H244.798V136.854Z" fill="#1B1F29" stroke="#1B1F29" stroke-miterlimit="10" stroke-linecap="round" stroke-linejoin="round"/>
<path d="M220.062 58.9392H217.694L216.513 67.356H221.243L220.062 58.9392Z" fill="white" stroke="#1B1F29" stroke-miterlimit="10" stroke-linecap="round" stroke-linejoin="round"/>
<path d="M220.437 56.6244H217.319L217.679 59.0076H220.077L220.437 56.6244Z" fill="white" stroke="#1B1F29" stroke-miterlimit="10" stroke-linecap="round" stroke-linejoin="round"/>
<path d="M226.586 67.6439C228.711 67.6439 230.434 65.921 230.434 63.7955C230.434 61.6701 228.711 59.9471 226.586 59.9471C224.46 59.9471 222.737 61.6701 222.737 63.7955C222.737 65.921 224.46 67.6439 226.586 67.6439Z" fill="white" stroke="#1B1F29" stroke-miterlimit="10" stroke-linecap="round" stroke-linejoin="round"/>
<path d="M243.29 79.6536H230.935V92.2608H243.29V79.6536Z" fill="white" stroke="#1B1F29" stroke-miterlimit="10" stroke-linecap="round" stroke-linejoin="round"/>
<path d="M241.144 81.8424H233.08V90.072H241.144V81.8424Z" fill="white" stroke="#1B1F29" stroke-miterlimit="10" stroke-linecap="round" stroke-linejoin="round"/>
<path d="M217.182 80.6724H214.126V92.1348H217.182V80.6724Z" fill="white" stroke="#1B1F29" stroke-miterlimit="10" stroke-linecap="round" stroke-linejoin="round"/>
<path d="M220.365 80.6724H217.309V92.1348H220.365V80.6724Z" fill="white" stroke="#1B1F29" stroke-miterlimit="10" stroke-linecap="round" stroke-linejoin="round"/>
<path d="M223.583 80.4864L220.583 81.069L222.768 92.3216L225.768 91.7391L223.583 80.4864Z" fill="white" stroke="#1B1F29" stroke-miterlimit="10" stroke-linecap="round" stroke-linejoin="round"/>
<path d="M241.099 136.822H244.155V125.36H241.099V136.822Z" fill="white" stroke="#1B1F29" stroke-miterlimit="10" stroke-linecap="round" stroke-linejoin="round"/>
<path d="M237.917 136.822H240.974V125.36H237.917V136.822Z" fill="white" stroke="#1B1F29" stroke-miterlimit="10" stroke-linecap="round" stroke-linejoin="round"/>
<path d="M232.517 136.42L235.518 137.002L237.702 125.75L234.702 125.167L232.517 136.42Z" fill="white" stroke="#1B1F29" stroke-miterlimit="10" stroke-linecap="round" stroke-linejoin="round"/>
<path d="M229.596 116.831C231.63 116.831 233.279 114.221 233.279 111.002C233.279 107.783 231.63 105.174 229.596 105.174C227.562 105.174 225.913 107.783 225.913 111.002C225.913 114.221 227.562 116.831 229.596 116.831Z" fill="white" stroke="#1B1F29" stroke-miterlimit="10" stroke-linecap="round" stroke-linejoin="round"/>
<path d="M231.036 104.047C231.151 103.007 232.076 98.964 232.076 98.964H229.592H227.108C227.108 98.964 228.034 103.007 228.149 104.047C228.264 105.088 227.688 106.009 227.688 106.009L229.592 107.683L231.497 106.009C231.497 106.009 230.921 105.088 231.036 104.047Z" fill="white" stroke="#1B1F29" stroke-miterlimit="10" stroke-linecap="round" stroke-linejoin="round"/>
<path d="M244.798 67.5216H213.773V70.8732H244.798V67.5216Z" fill="#1B1F29" stroke="#1B1F29" stroke-miterlimit="10" stroke-linecap="round" stroke-linejoin="round"/>
<path d="M244.798 92.2644H213.773V95.616H244.798V92.2644Z" fill="#1B1F29" stroke="#1B1F29" stroke-miterlimit="10" stroke-linecap="round" stroke-linejoin="round"/>
<path d="M244.798 117.007H213.773V120.359H244.798V117.007Z" fill="#1B1F29" stroke="#1B1F29" stroke-miterlimit="10" stroke-linecap="round" stroke-linejoin="round"/>
<path d="M51.9141 29.1204H34.7061V51.2424H51.9141V29.1204Z" stroke="#1B1F29" stroke-miterlimit="10" stroke-linecap="round" stroke-linejoin="round"/>
<path d="M50.8016 30.5496H35.8184V49.8168H50.8016V30.5496Z" stroke="#1B1F29" stroke-miterlimit="10" stroke-linecap="round" stroke-linejoin="round"/>
<path d="M45.729 37.0728H40.8906V43.2936H45.729V37.0728Z" stroke="#1B1F29" stroke-miterlimit="10" stroke-linecap="round" stroke-linejoin="round"/>
<path d="M31.581 45.6588H14.373V67.7808H31.581V45.6588Z" stroke="#1B1F29" stroke-miterlimit="10" stroke-linecap="round" stroke-linejoin="round"/>
<path d="M30.4646 47.088H15.4814V66.3552H30.4646V47.088Z" stroke="#1B1F29" stroke-miterlimit="10" stroke-linecap="round" stroke-linejoin="round"/>
<path d="M25.396 53.6112H20.5576V59.832H25.396V53.6112Z" stroke="#1B1F29" stroke-miterlimit="10" stroke-linecap="round" stroke-linejoin="round"/>
<path d="M73.9277 45.6588H56.7197V67.7808H73.9277V45.6588Z" stroke="#1B1F29" stroke-miterlimit="10" stroke-linecap="round" stroke-linejoin="round"/>
<path d="M72.8113 47.088H57.8281V66.3552H72.8113V47.088Z" stroke="#1B1F29" stroke-miterlimit="10" stroke-linecap="round" stroke-linejoin="round"/>
<path d="M67.7427 53.6112H62.9043V59.832H67.7427V53.6112Z" stroke="#1B1F29" stroke-miterlimit="10" stroke-linecap="round" stroke-linejoin="round"/>
<path d="M51.9141 54.7272H34.7061V67.6512H51.9141V54.7272Z" stroke="#1B1F29" stroke-miterlimit="10" stroke-linecap="round" stroke-linejoin="round"/>
<path d="M50.8016 55.5624H35.8184V66.816H50.8016V55.5624Z" stroke="#1B1F29" stroke-miterlimit="10" stroke-linecap="round" stroke-linejoin="round"/>
<path d="M45.729 59.3712H40.8906V63.0036H45.729V59.3712Z" stroke="#1B1F29" stroke-miterlimit="10" stroke-linecap="round" stroke-linejoin="round"/>
<path d="M53.7129 82.9842V71.853H45.3501V82.9842H53.7129Z" stroke="#1B1F29" stroke-miterlimit="10" stroke-linecap="round" stroke-linejoin="round"/>
<path d="M53.1729 82.2643V72.5695H45.8901V82.2643H53.1729Z" stroke="#1B1F29" stroke-miterlimit="10" stroke-linecap="round" stroke-linejoin="round"/>
<path d="M50.71 78.9811V75.8527H48.3592V78.9811H50.71Z" stroke="#1B1F29" stroke-miterlimit="10" stroke-linecap="round" stroke-linejoin="round"/>
<path d="M41.3574 82.9813V71.8501H32.9946V82.9813H41.3574Z" stroke="#1B1F29" stroke-miterlimit="10" stroke-linecap="round" stroke-linejoin="round"/>
<path d="M40.8174 82.2649V72.5701H33.5346V82.2649H40.8174Z" stroke="#1B1F29" stroke-miterlimit="10" stroke-linecap="round" stroke-linejoin="round"/>
<path d="M38.3545 78.9818V75.8534H36.0037V78.9818H38.3545Z" stroke="#1B1F29" stroke-miterlimit="10" stroke-linecap="round" stroke-linejoin="round"/>
<path d="M154.745 38.3436H111.199V98.28H154.745V38.3436Z" fill="#1B1F29" stroke="#1B1F29" stroke-miterlimit="10" stroke-linecap="round" stroke-linejoin="round"/>
<path d="M152.667 41.0148H113.272V95.6052H152.667V41.0148Z" fill="white" stroke="#1B1F29" stroke-miterlimit="10" stroke-linecap="round" stroke-linejoin="round"/>
<path d="M137.123 49.4677L127.41 59.184" stroke="#1B1F29" stroke-miterlimit="10" stroke-linecap="round" stroke-linejoin="round"/>
<path d="M142.199 44.3916L138.095 48.4956" stroke="#1B1F29" stroke-miterlimit="10" stroke-linecap="round" stroke-linejoin="round"/>
<path d="M130.538 52.5959L124.71 58.4279" stroke="#1B1F29" stroke-miterlimit="10" stroke-linecap="round" stroke-linejoin="round"/>
<path d="M129.135 90.9216L127.41 92.6496" stroke="#1B1F29" stroke-miterlimit="10" stroke-linecap="round" stroke-linejoin="round"/>
<path d="M142.199 77.8572L130.106 89.9496" stroke="#1B1F29" stroke-miterlimit="10" stroke-linecap="round" stroke-linejoin="round"/>
<path d="M130.538 86.0615L124.71 91.8935" stroke="#1B1F29" stroke-miterlimit="10" stroke-linecap="round" stroke-linejoin="round"/>
<path d="M134.415 70.5456C134.415 69.8184 133.828 69.2316 133.101 69.2316C132.374 69.2316 131.787 69.8184 131.787 70.5456C131.787 71.2728 132.374 71.8596 133.101 71.8596C133.825 71.8632 134.415 71.2728 134.415 70.5456Z" fill="#1B1F29" stroke="#1B1F29" stroke-miterlimit="10" stroke-linecap="round" stroke-linejoin="round"/>
<path d="M152.667 70.3584H113.272V72.774H152.667V70.3584Z" fill="#1B1F29" stroke="#1B1F29" stroke-miterlimit="10" stroke-linecap="round" stroke-linejoin="round"/>
<path d="M156.026 34.7544H110.177V39.8772H156.026V34.7544Z" fill="#1B1F29" stroke="#1B1F29" stroke-miterlimit="10" stroke-linecap="round" stroke-linejoin="round"/>
<path d="M156.026 96.4872H110.177V101.61H156.026V96.4872Z" fill="#1B1F29" stroke="#1B1F29" stroke-miterlimit="10" stroke-linecap="round" stroke-linejoin="round"/>
<path d="M172.161 27.5833H93.7822V29.1205H172.161V27.5833Z" fill="white" stroke="#1B1F29" stroke-miterlimit="10" stroke-linecap="round" stroke-linejoin="round"/>
<path d="M99.3373 107.244H98.2141C97.3213 107.244 96.5977 106.52 96.5977 105.628V27.918C96.5977 27.0252 97.3213 26.3016 98.2141 26.3016H99.3373C100.23 26.3016 100.954 27.0252 100.954 27.918V105.628C100.954 106.52 100.23 107.244 99.3373 107.244Z" fill="white" stroke="#1B1F29" stroke-miterlimit="10" stroke-linecap="round" stroke-linejoin="round"/>
<path d="M103.438 107.244H102.315C101.422 107.244 100.698 106.52 100.698 105.628V27.918C100.698 27.0252 101.422 26.3016 102.315 26.3016H103.438C104.331 26.3016 105.054 27.0252 105.054 27.918V105.628C105.054 106.52 104.331 107.244 103.438 107.244Z" fill="white" stroke="#1B1F29" stroke-miterlimit="10" stroke-linecap="round" stroke-linejoin="round"/>
<path d="M107.535 107.244H106.411C105.519 107.244 104.795 106.52 104.795 105.628V27.918C104.795 27.0252 105.519 26.3016 106.411 26.3016H107.535C108.427 26.3016 109.151 27.0252 109.151 27.918V105.628C109.151 106.52 108.427 107.244 107.535 107.244Z" fill="white" stroke="#1B1F29" stroke-miterlimit="10" stroke-linecap="round" stroke-linejoin="round"/>
<path d="M111.635 107.244H110.512C109.619 107.244 108.896 106.52 108.896 105.628V27.918C108.896 27.0252 109.619 26.3016 110.512 26.3016H111.635C112.528 26.3016 113.252 27.0252 113.252 27.918V105.628C113.248 106.52 112.528 107.244 111.635 107.244Z" fill="white" stroke="#1B1F29" stroke-miterlimit="10" stroke-linecap="round" stroke-linejoin="round"/>
<path d="M155.692 107.244H154.569C153.676 107.244 152.952 106.52 152.952 105.628V27.918C152.952 27.0252 153.676 26.3016 154.569 26.3016H155.692C156.585 26.3016 157.308 27.0252 157.308 27.918V105.628C157.305 106.52 156.585 107.244 155.692 107.244Z" fill="white" stroke="#1B1F29" stroke-miterlimit="10" stroke-linecap="round" stroke-linejoin="round"/>
<path d="M159.788 107.244H158.665C157.772 107.244 157.049 106.52 157.049 105.628V27.918C157.049 27.0252 157.772 26.3016 158.665 26.3016H159.788C160.681 26.3016 161.405 27.0252 161.405 27.918V105.628C161.405 106.52 160.681 107.244 159.788 107.244Z" fill="white" stroke="#1B1F29" stroke-miterlimit="10" stroke-linecap="round" stroke-linejoin="round"/>
<path d="M163.889 107.244H162.766C161.873 107.244 161.149 106.52 161.149 105.628V27.918C161.149 27.0252 161.873 26.3016 162.766 26.3016H163.889C164.782 26.3016 165.505 27.0252 165.505 27.918V105.628C165.502 106.52 164.778 107.244 163.889 107.244Z" fill="white" stroke="#1B1F29" stroke-miterlimit="10" stroke-linecap="round" stroke-linejoin="round"/>
<path d="M167.986 107.244H166.862C165.97 107.244 165.246 106.52 165.246 105.628V27.918C165.246 27.0252 165.97 26.3016 166.862 26.3016H167.986C168.878 26.3016 169.602 27.0252 169.602 27.918V105.628C169.602 106.52 168.878 107.244 167.986 107.244Z" fill="white" stroke="#1B1F29" stroke-miterlimit="10" stroke-linecap="round" stroke-linejoin="round"/>
<path d="M87.1001 114.07C87.1001 114.07 87.6257 99.2592 89.3285 98.8668C91.0313 98.4744 95.4881 99.9144 109.777 99.3924C124.065 98.8668 131.668 99.2628 132.19 99.6552C132.716 100.048 134.548 122.202 133.763 122.465C132.979 122.728 116.591 121.021 109.777 121.154C102.962 121.284 89.1953 122.465 88.0181 122.202C86.8373 121.939 87.1001 114.07 87.1001 114.07Z" fill="#92E3A9" stroke="#1B1F29" stroke-miterlimit="10" stroke-linecap="round" stroke-linejoin="round"/>
<path d="M178.371 114.07C178.371 114.07 177.845 99.2592 176.143 98.8668C174.44 98.4744 169.983 99.9144 155.695 99.3924C141.406 98.8668 133.803 99.2628 133.277 99.6552C132.752 100.048 132.979 122.202 133.763 122.465C134.548 122.728 148.876 121.021 155.691 121.154C162.506 121.284 176.272 122.465 177.449 122.202C178.627 121.939 178.371 114.07 178.371 114.07Z" fill="#92E3A9" stroke="#1B1F29" stroke-miterlimit="10" stroke-linecap="round" stroke-linejoin="round"/>
<path d="M180.822 137.012H87.2295V143.042H180.822V137.012Z" fill="#92E3A9" stroke="#1B1F29" stroke-miterlimit="10" stroke-linecap="round" stroke-linejoin="round"/>
<path d="M134.465 121.021H87.2295V131.429H134.465V121.021Z" fill="#92E3A9" stroke="#1B1F29" stroke-miterlimit="10" stroke-linecap="round" stroke-linejoin="round"/>
<path d="M180.477 121.021H134.296V131.429H180.477V121.021Z" fill="#92E3A9" stroke="#1B1F29" stroke-miterlimit="10" stroke-linecap="round" stroke-linejoin="round"/>
<path d="M134.465 126.922H87.2295V137.329H134.465V126.922Z" fill="#92E3A9" stroke="#1B1F29" stroke-miterlimit="10" stroke-linecap="round" stroke-linejoin="round"/>
<path d="M180.477 126.922H134.296V137.329H180.477V126.922Z" fill="#92E3A9" stroke="#1B1F29" stroke-miterlimit="10" stroke-linecap="round" stroke-linejoin="round"/>
<path d="M102.231 101.75C102.231 101.75 97.7738 105.422 93.5798 105.552C89.3858 105.682 87.5498 104.634 85.0586 105.944C82.5674 107.255 89.5154 122.069 91.8734 122.854C94.2314 123.638 106.817 120.755 108.261 120.233C109.704 119.707 104.985 106.733 104.329 104.634C103.671 102.535 103.671 101.095 102.231 101.75Z" fill="#1B1F29" stroke="#1B1F29" stroke-miterlimit="10" stroke-linecap="round" stroke-linejoin="round"/>
<path d="M109.121 106.47C109.121 106.47 104.534 105.026 103.875 105.422C103.22 105.815 104.793 113.551 105.186 115.646C105.578 117.745 104.793 120.758 105.578 121.151C106.363 121.543 121.832 122.069 123.931 121.806C126.03 121.543 121.703 110.138 121.31 106.862C120.918 103.586 121.181 103.979 119.607 104.504C118.034 105.03 112.659 106.47 109.121 106.47Z" fill="white" stroke="#1B1F29" stroke-miterlimit="10" stroke-linecap="round" stroke-linejoin="round"/>
<path d="M163.384 101.75C163.384 101.75 167.841 105.422 172.035 105.552C176.229 105.682 178.065 104.634 180.556 105.944C183.047 107.255 176.099 122.069 173.741 122.854C171.383 123.638 158.798 120.755 157.354 120.233C155.91 119.707 160.63 106.733 161.285 104.634C161.94 102.535 161.94 101.095 163.384 101.75Z" fill="#1B1F29" stroke="#1B1F29" stroke-miterlimit="10" stroke-linecap="round" stroke-linejoin="round"/>
<path d="M156.49 106.47C156.49 106.47 161.076 105.026 161.732 105.422C162.387 105.815 160.814 113.551 160.421 115.646C160.029 117.745 160.814 120.758 160.029 121.151C159.244 121.543 143.775 122.069 141.676 121.806C139.577 121.543 143.904 110.138 144.297 106.862C144.689 103.586 144.427 103.979 146 104.504C147.577 105.03 152.951 106.47 156.49 106.47Z" fill="white" stroke="#1B1F29" stroke-miterlimit="10" stroke-linecap="round" stroke-linejoin="round"/>
<path d="M87.0026 147.107H83.687C82.8302 147.107 82.1318 146.412 82.1318 145.552V114.07C82.1318 113.058 82.9526 112.237 83.9642 112.237H86.7218C87.7334 112.237 88.5542 113.058 88.5542 114.07V145.552C88.5578 146.412 87.8594 147.107 87.0026 147.107Z" fill="#92E3A9" stroke="#1B1F29" stroke-miterlimit="10" stroke-linecap="round" stroke-linejoin="round"/>
<path d="M182.636 147.107H179.321C178.464 147.107 177.766 146.412 177.766 145.552V114.07C177.766 113.058 178.586 112.237 179.598 112.237H182.356C183.367 112.237 184.188 113.058 184.188 114.07V145.552C184.188 146.412 183.493 147.107 182.636 147.107Z" fill="#92E3A9" stroke="#1B1F29" stroke-miterlimit="10" stroke-linecap="round" stroke-linejoin="round"/>
<path d="M208.596 127.93C208.47 126.932 204.687 125.687 204.687 125.687L199.514 125.932L194.34 125.687C194.34 125.687 190.557 126.932 190.431 127.93C190.305 128.927 188.159 143.507 188.159 143.507C188.159 143.507 192.702 144.878 197.746 144.878H199.514H201.281C206.328 144.878 210.868 143.507 210.868 143.507C210.868 143.507 208.722 128.923 208.596 127.93Z" fill="white" stroke="#1B1F29" stroke-miterlimit="10" stroke-linecap="round" stroke-linejoin="round"/>
<path d="M199.514 127.127C203.096 127.127 206.001 126.007 206.001 124.625C206.001 123.243 203.096 122.123 199.514 122.123C195.931 122.123 193.026 123.243 193.026 124.625C193.026 126.007 195.931 127.127 199.514 127.127Z" fill="white" stroke="#1B1F29" stroke-miterlimit="10" stroke-linecap="round" stroke-linejoin="round"/>
<path d="M187.173 119.725L189.394 122.875C189.394 124.427 193.923 125.683 199.514 125.683C205.104 125.683 209.633 124.427 209.633 122.875L211.854 119.725H187.173Z" fill="white" stroke="#1B1F29" stroke-miterlimit="10" stroke-linecap="round" stroke-linejoin="round"/>
<path d="M199.514 122.371C206.329 122.371 211.854 121.187 211.854 119.725C211.854 118.264 206.329 117.079 199.514 117.079C192.698 117.079 187.173 118.264 187.173 119.725C187.173 121.187 192.698 122.371 199.514 122.371Z" fill="white" stroke="#1B1F29" stroke-miterlimit="10" stroke-linecap="round" stroke-linejoin="round"/>
<path d="M199.54 119.074L201.207 100.519L186.335 87.3143" stroke="#1B1F29" stroke-width="2" stroke-miterlimit="10" stroke-linecap="round" stroke-linejoin="round"/>
<path d="M186.518 87.426C186.986 87.1452 187.357 86.5728 187.451 85.8636C187.591 84.798 187.055 83.8476 186.255 83.7432C185.456 83.6388 184.697 84.4164 184.556 85.482C184.463 86.1876 184.671 86.8392 185.053 87.2316C183.509 87.588 182.123 89.6148 181.781 92.2104C181.727 92.6064 181.705 92.9988 181.705 93.3768L188.167 94.2264C188.264 93.8592 188.343 93.4776 188.394 93.078C188.736 90.4824 187.919 88.1676 186.518 87.426Z" fill="white" stroke="#1B1F29" stroke-miterlimit="10" stroke-linecap="round" stroke-linejoin="round"/>
<path d="M203.709 118.17H195.371V119.977H203.709V118.17Z" fill="white" stroke="#1B1F29" stroke-miterlimit="10" stroke-linecap="round" stroke-linejoin="round"/>
<path d="M160.252 141.538L163.024 155.106H162.261L157.901 141.746L160.252 141.538Z" fill="#1B1F29" stroke="#1B1F29" stroke-miterlimit="10" stroke-linecap="round" stroke-linejoin="round"/>
<path d="M109.654 141.538L106.886 155.106H107.649L112.009 141.746L109.654 141.538Z" fill="#1B1F29" stroke="#1B1F29" stroke-miterlimit="10" stroke-linecap="round" stroke-linejoin="round"/>
<path d="M107.372 147.769L104.604 161.334H105.363L109.726 147.978L107.372 147.769Z" fill="#1B1F29" stroke="#1B1F29" stroke-miterlimit="10" stroke-linecap="round" stroke-linejoin="round"/>
<path d="M163.024 147.769L165.793 161.334H165.03L160.67 147.978L163.024 147.769Z" fill="#1B1F29" stroke="#1B1F29" stroke-miterlimit="10" stroke-linecap="round" stroke-linejoin="round"/>
<path d="M172.276 147.107L167.452 139.766H102.048L97.2236 147.107H172.276Z" fill="white" stroke="#1B1F29" stroke-miterlimit="10" stroke-linecap="round" stroke-linejoin="round"/>
<path d="M172.176 147.107H97.2236V148.417H172.176V147.107Z" fill="#1B1F29" stroke="#1B1F29" stroke-miterlimit="10" stroke-linecap="round" stroke-linejoin="round"/>
<path d="M136.888 143.806L136.236 144.202H131.621L130.969 143.806C130.296 143.395 129.569 143.093 128.842 142.787C128.241 142.535 127.877 141.955 128.032 141.354L129.515 135.655H138.335L139.818 141.354C139.977 141.955 139.609 142.535 139.008 142.787C138.288 143.093 137.561 143.399 136.888 143.806Z" fill="white" stroke="#1B1F29" stroke-miterlimit="10" stroke-linecap="round" stroke-linejoin="round"/>
<path d="M136.236 144.202H131.621C131.117 144.202 130.743 143.305 130.851 142.362L131.625 135.659H136.233L137.007 142.362C137.115 143.305 136.74 144.202 136.236 144.202Z" fill="white" stroke="#1B1F29" stroke-miterlimit="10" stroke-linecap="round" stroke-linejoin="round"/>
<path d="M129.518 135.659L128.161 133.628L130.724 135.018L131.045 133.2L131.794 133.416L131.257 131.386L133.396 132.988L134.998 129.571L135.318 133.096L137.345 132.026L136.812 133.628L139.163 132.667L137.881 134.482L138.947 134.59L138.338 135.659H129.518Z" fill="#1B1F29" stroke="#1B1F29" stroke-miterlimit="10" stroke-linecap="round" stroke-linejoin="round"/>
<path d="M60.1292 92.646C60.1364 92.6316 60.1292 92.6172 60.1148 92.61C60.1004 92.6028 60.086 92.61 60.0824 92.6244C59.3084 94.4064 58.7684 96.282 58.3148 98.1684C57.8756 100.062 57.5588 101.984 57.3392 103.918L57.2024 105.372C57.1808 105.613 57.1556 105.858 57.1376 106.099L57.098 106.826C57.0764 107.312 57.0476 107.798 57.0332 108.284L57.0476 109.746L57.0656 110.477C57.0764 110.722 57.0944 110.963 57.1088 111.204C57.1448 111.69 57.1736 112.176 57.2204 112.658C57.314 113.627 57.458 114.588 57.6092 115.549C57.6128 115.56 57.62 115.571 57.6344 115.571C57.6488 115.571 57.6596 115.56 57.6596 115.546C57.656 115.06 57.638 114.574 57.6272 114.091C57.6128 113.609 57.5696 113.126 57.5768 112.64C57.5804 112.158 57.566 111.676 57.5624 111.19L57.548 110.466L57.5624 109.742L57.5696 108.295L57.6092 106.848L57.6236 106.124C57.6344 105.883 57.6524 105.642 57.6632 105.401L57.7532 103.957C57.9224 102.035 58.1852 100.12 58.5704 98.2224C58.9484 96.3324 59.4236 94.4496 60.1292 92.646Z" fill="#1B1F29"/>
<path d="M60.338 100.213C60.3416 100.199 60.3344 100.184 60.3236 100.181C60.3092 100.177 60.2948 100.184 60.2912 100.195C59.8736 101.398 59.5424 102.625 59.2616 103.871C58.9916 105.116 58.7828 106.376 58.6532 107.647C58.5236 108.914 58.3832 110.182 58.3652 111.452C58.3472 112.723 58.3652 113.998 58.502 115.268C58.502 115.279 58.5128 115.29 58.5236 115.29C58.538 115.29 58.5488 115.283 58.5524 115.268C58.7 114.001 58.79 112.738 58.8764 111.474C58.9664 110.21 58.9772 108.943 59.06 107.68C59.1356 106.42 59.294 105.163 59.51 103.918C59.7224 102.672 59.9888 101.43 60.338 100.213Z" fill="#1B1F29"/>
<path d="M64.5316 102.874C64.5244 102.863 64.51 102.859 64.4956 102.866C63.4444 103.532 62.5084 104.368 61.6912 105.311C61.288 105.79 60.9136 106.29 60.5932 106.837L60.3664 107.262L60.19 107.705C60.1252 107.852 60.082 108.004 60.0352 108.151C59.9884 108.302 59.938 108.454 59.8984 108.605C59.5816 109.822 59.3764 111.06 59.3188 112.306C59.2684 113.551 59.29 114.797 59.4592 116.032C59.4628 116.042 59.47 116.053 59.4844 116.053C59.4988 116.053 59.5096 116.042 59.5132 116.028L59.8336 112.338C59.9596 111.118 60.0388 109.894 60.3016 108.702C60.334 108.554 60.3772 108.407 60.4168 108.263C60.4564 108.115 60.4924 107.968 60.5464 107.827L60.6976 107.402L60.892 106.999C61.1764 106.466 61.522 105.955 61.8964 105.473C62.6452 104.504 63.5272 103.626 64.5316 102.91C64.5352 102.899 64.5388 102.884 64.5316 102.874Z" fill="#1B1F29"/>
<path d="M62.5019 107.611C61.9295 107.978 61.5479 108.562 61.2275 109.145C60.9215 109.742 60.6803 110.376 60.5111 111.024C60.4607 111.186 60.4211 111.348 60.3851 111.51L60.2699 112C60.2123 112.327 60.1655 112.662 60.1475 112.997C60.1439 113.332 60.1331 113.666 60.1547 113.998C60.1835 114.332 60.2195 114.664 60.2843 114.995C60.2879 115.006 60.2951 115.013 60.3059 115.016C60.3203 115.02 60.3347 115.009 60.3383 114.995C60.4175 114.667 60.4715 114.34 60.5147 114.016C60.5651 113.692 60.6155 113.368 60.6551 113.044C60.7019 112.723 60.7451 112.403 60.7703 112.079C60.8135 111.758 60.8387 111.431 60.9107 111.118C61.0223 110.477 61.2095 109.854 61.4579 109.256C61.7063 108.666 62.0303 108.076 62.5271 107.658L62.5307 107.654C62.5415 107.647 62.5415 107.633 62.5343 107.622C62.5307 107.608 62.5127 107.604 62.5019 107.611Z" fill="#1B1F29"/>
<path d="M56.6193 111.308C56.4825 109.67 56.2125 108.05 55.9569 106.43C55.7013 104.81 55.4169 103.194 55.1217 101.581C54.8157 99.9721 54.4953 98.3629 54.1461 96.7609C54.1425 96.7465 54.1317 96.7393 54.1173 96.7429C54.1029 96.7465 54.0957 96.7573 54.0957 96.7717C54.3765 98.3845 54.6285 100.004 54.8697 101.624C55.1145 103.244 55.3485 104.864 55.5501 106.488C55.7517 108.112 55.9065 109.742 56.1081 111.362L56.7057 116.237C56.7057 116.248 56.7165 116.258 56.7309 116.258C56.7453 116.258 56.7561 116.248 56.7561 116.233C56.7741 115.823 56.7741 115.412 56.7849 114.998C56.7885 114.588 56.7669 114.178 56.7597 113.767C56.7525 112.943 56.6805 112.126 56.6193 111.308Z" fill="#1B1F29"/>
<path d="M55.6361 111.283C55.5497 110.635 55.4309 109.991 55.3049 109.346L55.0745 108.389C54.9989 108.068 54.9269 107.752 54.8333 107.435C54.5057 106.168 54.0881 104.918 53.5805 103.712L53.3825 103.262L53.1629 102.823C53.0225 102.528 52.8569 102.244 52.6985 101.959C52.3565 101.401 52.0001 100.843 51.5177 100.393C51.5069 100.382 51.4925 100.382 51.4817 100.393C51.4709 100.404 51.4709 100.418 51.4817 100.429L51.4853 100.433C51.9317 100.897 52.2593 101.47 52.5653 102.035C52.7093 102.326 52.8569 102.611 52.9793 102.913L53.1701 103.36L53.3393 103.813C53.7929 105.026 54.1565 106.272 54.4301 107.539C54.5777 108.169 54.6785 108.81 54.8009 109.447L54.9557 110.408C55.0097 110.729 55.0781 111.046 55.1249 111.366C55.2257 112.007 55.3445 112.644 55.4561 113.285C55.5569 113.926 55.6721 114.57 55.8089 115.211C55.8125 115.222 55.8233 115.232 55.8341 115.232C55.8485 115.232 55.8593 115.222 55.8593 115.207C55.8629 114.552 55.8485 113.897 55.8125 113.245C55.7837 112.583 55.7045 111.935 55.6361 111.283Z" fill="#1B1F29"/>
<path d="M54.2825 111.366C53.9801 110.506 53.6273 109.667 53.2457 108.842C52.8533 108.022 52.4285 107.219 51.9425 106.452C51.9353 106.441 51.9209 106.438 51.9065 106.445C51.8957 106.452 51.8921 106.466 51.8993 106.481C52.3241 107.276 52.6841 108.108 53.0117 108.947C53.3429 109.786 53.6453 110.635 53.8937 111.499C54.1493 112.363 54.3329 113.242 54.5633 114.106C54.8045 114.97 54.9989 115.844 55.2653 116.723C55.2689 116.734 55.2797 116.741 55.2905 116.741C55.3049 116.741 55.3157 116.73 55.3157 116.716C55.3301 115.801 55.2401 114.887 55.0601 113.99C54.9017 113.087 54.5849 112.226 54.2825 111.366Z" fill="#1B1F29"/>
<path d="M54.2251 114.228C54.0703 113.692 53.8039 113.188 53.5051 112.716C53.2099 112.241 52.8679 111.791 52.4575 111.413C52.2451 111.229 52.0291 111.053 51.7915 110.909C51.5575 110.761 51.3055 110.639 51.0355 110.567C51.0247 110.563 51.0103 110.57 51.0067 110.581C50.9995 110.596 51.0067 110.61 51.0211 110.614H51.0247C51.5143 110.833 51.9283 111.193 52.2811 111.589C52.6375 111.985 52.9183 112.439 53.1559 112.914C53.4043 113.386 53.5339 113.904 53.7499 114.39C53.8435 114.638 53.9407 114.887 54.0487 115.135C54.1423 115.387 54.2467 115.639 54.3763 115.891C54.3799 115.898 54.3871 115.906 54.3979 115.906C54.4123 115.906 54.4231 115.895 54.4267 115.88C54.4375 115.6 54.4231 115.322 54.3943 115.045C54.3511 114.772 54.2935 114.502 54.2251 114.228Z" fill="#1B1F29"/>
<path d="M54.3252 99.1044C54.3252 99.1044 51.6432 98.4852 51.024 95.5944C50.4048 92.7036 52.3992 93.942 50.61 89.4024C48.8208 84.8628 49.2348 83.8296 49.854 82.5228C50.4732 81.216 50.8188 81.63 51.366 83.3472C51.9168 85.068 53.9112 87.75 54.6672 92.772C55.4268 97.794 54.3252 99.1044 54.3252 99.1044Z" fill="#92E3A9"/>
<path d="M59.6247 94.2192C59.6247 94.2192 57.8355 93.6 57.7671 90.2304C57.6987 86.8608 59.0739 87.5484 59.2791 83.3508C59.4843 79.1532 59.7615 76.194 60.5175 76.1256C61.2735 76.0572 63.2679 78.1884 63.9591 82.8684C64.6467 87.5484 63.0663 90.6444 61.6875 92.0196C60.3123 93.3912 59.6247 94.2192 59.6247 94.2192Z" fill="#92E3A9"/>
<path d="M53.3646 103.162C53.3646 103.162 52.9506 100.685 52.1262 99.5148C51.3018 98.3448 49.5126 97.3116 48.3426 95.0436C47.1726 92.772 45.8658 91.674 45.9342 94.9068C46.0026 98.1396 47.4462 99.792 49.2354 100.894C51.0246 101.992 53.3646 103.162 53.3646 103.162Z" fill="#92E3A9"/>
<path d="M52.6083 107.428C52.6083 107.428 50.9559 104.263 48.5475 101.923C46.1391 99.5833 44.2131 98.4133 44.9007 99.5833C45.5883 100.753 46.4127 100.685 47.5827 102.748C48.7527 104.81 48.4071 106.326 50.0595 107.496C51.7119 108.666 52.6083 107.428 52.6083 107.428Z" fill="#92E3A9"/>
<path d="M52.3997 111.488C52.3313 111.283 52.2629 109.768 49.9229 108.529C47.5829 107.291 45.3833 107.773 45.6569 108.392C45.9305 109.012 47.3777 110.045 48.8213 110.664C50.2685 111.28 52.3997 111.488 52.3997 111.488Z" fill="#92E3A9"/>
<path d="M59.4878 103.298C59.4878 103.298 58.4546 101.992 59.0054 99.2376C59.5562 96.4872 60.7946 97.1748 62.1698 95.7276C63.545 94.284 63.2714 94.0752 64.6466 92.5632C66.0218 91.0512 67.2602 90.2232 67.811 90.8424C68.3618 91.4616 67.5374 93.3876 66.7094 94.4892C65.885 95.5908 64.5782 96.1416 63.959 97.5168C63.3398 98.892 63.6134 101.095 62.033 102.125C60.449 103.162 59.4878 103.298 59.4878 103.298Z" fill="#92E3A9"/>
<path d="M62.9258 104.058C62.9258 104.058 65.4026 101.236 67.1918 99.1729C68.981 97.1101 69.6686 95.5261 69.737 96.9013C69.8054 98.2765 70.3562 99.3781 68.9126 101.167C67.469 102.956 62.9258 104.058 62.9258 104.058Z" fill="#92E3A9"/>
<path d="M61.6192 108.598C61.6192 108.598 61.5508 107.496 65.4712 104.951C69.3916 102.406 71.044 101.923 70.63 102.956C70.216 103.99 68.4988 105.019 66.6412 106.877C64.7836 108.734 61.6192 108.598 61.6192 108.598Z" fill="#92E3A9"/>
<path d="M54.4912 98.8092C54.4912 98.8092 53.5696 93.8736 52.6084 90.3636C51.6436 86.8536 51.0244 84.7224 51.0244 84.7224" stroke="#1B1F29" stroke-miterlimit="10" stroke-linecap="round" stroke-linejoin="round"/>
<path d="M59.4668 94.2696C59.4668 94.2696 61.1372 88.92 61.688 85.6872C62.2388 82.4544 61.6196 80.046 61.3424 78.6024" stroke="#1B1F29" stroke-miterlimit="10" stroke-linecap="round" stroke-linejoin="round"/>
<path d="M53.1481 103.057C53.1481 103.057 52.1257 101.236 50.6137 99.4464C49.1017 97.6572 47.9317 96.696 47.2441 94.9752" stroke="#1B1F29" stroke-miterlimit="10" stroke-linecap="round" stroke-linejoin="round"/>
<path d="M59.4883 103.298C59.4883 103.298 60.0391 99.9972 61.3459 98.2764C62.6527 96.5556 65.2663 93.8736 66.2995 92.1528" stroke="#1B1F29" stroke-miterlimit="10" stroke-linecap="round" stroke-linejoin="round"/>
<path d="M52.2377 111.413C52.2377 111.413 49.9229 109.904 48.2705 109.08" stroke="#1B1F29" stroke-miterlimit="10" stroke-linecap="round" stroke-linejoin="round"/>
<path d="M65.496 125.28C65.3412 121.104 60.7008 118.321 60.7008 118.321H57.7668H56.5248H53.5908C53.5908 118.321 48.9504 121.104 48.7992 125.28C48.6444 129.456 54.0552 144.763 54.0552 144.763H56.5248H57.7668H60.2364C60.2364 144.763 65.6508 129.452 65.496 125.28Z" fill="#1B1F29" stroke="#1B1F29" stroke-miterlimit="10" stroke-linecap="round" stroke-linejoin="round"/>
<path d="M61.615 114.217H52.543L53.5906 118.321H60.571L61.615 114.217Z" fill="#1B1F29" stroke="#1B1F29" stroke-miterlimit="10" stroke-linecap="round" stroke-linejoin="round"/>
</svg>
