<svg width="112" height="30" viewBox="0 0 112 30" fill="none" xmlns="http://www.w3.org/2000/svg">
<path d="M0 5.4H6.4V0H0V5.4ZM0.16 29.2H6.24V7.76H0.16V29.2Z" fill="#231F20"/>
<path d="M12.5903 29.2H25.9103C32.2303 29.2 36.3903 26.64 36.3903 21.52V21.44C36.3903 17.68 34.3903 15.8 31.1503 14.56C33.1503 13.44 34.8303 11.68 34.8303 8.52V8.44C34.8303 6.52 34.1903 4.96 32.9103 3.68C31.3103 2.08 28.7903 1.2 25.5903 1.2H12.5903V29.2ZM18.5903 12.52V6.6H24.6703C27.2703 6.6 28.7103 7.64 28.7103 9.48V9.56C28.7103 11.64 26.9903 12.52 24.2703 12.52H18.5903ZM18.5903 23.8V17.64H25.7103C28.8703 17.64 30.2703 18.8 30.2703 20.68V20.76C30.2703 22.84 28.6303 23.8 25.9103 23.8H18.5903Z" fill="#231F20"/>
<path d="M47.9375 29.6C51.0175 29.6 52.8175 27.96 54.2175 26.16V29.2H60.2975V7.76H54.2175V19.72C54.2175 22.6 52.7375 24.08 50.4175 24.08C48.0975 24.08 46.7375 22.6 46.7375 19.72V7.76H40.6575V21.64C40.6575 26.56 43.3375 29.6 47.9375 29.6Z" fill="#231F20"/>
<path d="M65.8594 5.4H72.2594V0H65.8594V5.4ZM66.0194 29.2H72.0994V7.76H66.0194V29.2Z" fill="#231F20"/>
<path d="M78.0897 29.2H84.1697V0H78.0897V29.2Z" fill="#231F20"/>
<path d="M98.68 29.6C101.84 29.6 103.88 28.12 105.36 26.12V29.2H111.44V0H105.36V10.56C103.92 8.84 101.92 7.36 98.68 7.36C93.6 7.36 88.92 11.28 88.92 18.44V18.52C88.92 25.68 93.68 29.6 98.68 29.6ZM100.24 24.44C97.4 24.44 95 22.08 95 18.52V18.44C95 14.84 97.4 12.52 100.24 12.52C103.08 12.52 105.44 14.88 105.44 18.44V18.52C105.44 22.08 103.08 24.44 100.24 24.44Z" fill="#231F20"/>
</svg>
