<svg width="181" height="180" viewBox="0 0 181 180" fill="none" xmlns="http://www.w3.org/2000/svg">
<path d="M167.886 39.6648C167.317 38.6964 166.716 37.7496 166.089 36.8208C157.745 24.4548 143.384 15.9984 129.258 12.1752C123.073 10.5012 116.683 9.62279 110.282 9.40679C68.3026 7.98479 51.5806 41.0688 37.7062 49.608C23.8318 58.1472 2.48017 72.7308 3.90577 103.327C5.33137 133.924 27.385 162.742 70.0774 164.52C112.77 166.298 115.617 147.089 139.453 139.972C155.228 135.263 166.435 119.358 171.925 104.659C179.406 84.6288 179.053 58.6116 167.886 39.6648Z" fill="#92E3A9"/>
<path opacity="0.7" d="M167.886 39.6648C167.317 38.6964 166.716 37.7496 166.089 36.8208C157.745 24.4548 143.384 15.9984 129.258 12.1752C123.073 10.5012 116.683 9.62279 110.282 9.40679C68.3026 7.98479 51.5806 41.0688 37.7062 49.608C23.8318 58.1472 2.48017 72.7308 3.90577 103.327C5.33137 133.924 27.385 162.742 70.0774 164.52C112.77 166.298 115.617 147.089 139.453 139.972C155.228 135.263 166.435 119.358 171.925 104.659C179.406 84.6288 179.053 58.6116 167.886 39.6648Z" fill="white"/>
<path d="M176.08 167.994H17.5859" stroke="#263238" stroke-miterlimit="10" stroke-linecap="round" stroke-linejoin="round"/>
<g opacity="0.3">
<path d="M86.9072 14.5692V146.16H129.654V14.5692H86.9072ZM127.501 17.4924V36.9144H109.71V17.4924H127.501ZM107.049 17.4924V36.9144H89.06V17.4924H107.049ZM89.06 39.996H107.049V59.2668H89.06V39.996ZM127.501 143.237H89.06V62.6112H127.501V143.237ZM109.71 59.2668V39.996H127.501V59.2668H109.71Z" stroke="black" stroke-miterlimit="10" stroke-linecap="round" stroke-linejoin="round"/>
<path d="M129.488 14.5692V146.16H172.235V14.5692H129.488ZM170.082 17.4924V36.9144H152.291V17.4924H170.082ZM149.63 17.4924V36.9144H131.641V17.4924H149.63ZM131.641 39.996H149.63V59.2668H131.641V39.996V39.996ZM170.082 143.237H131.641V62.6112H170.082V143.237ZM152.291 59.2668V39.996H170.082V59.2668H152.291Z" stroke="black" stroke-miterlimit="10" stroke-linecap="round" stroke-linejoin="round"/>
<path d="M117.932 84.4524L107.2 97.8084" stroke="black" stroke-miterlimit="10" stroke-linecap="round" stroke-linejoin="round"/>
<path d="M120.596 81.1368L118.89 83.2608" stroke="black" stroke-miterlimit="10" stroke-linecap="round" stroke-linejoin="round"/>
<path d="M95.5326 107.546L93.333 110.131" stroke="black" stroke-miterlimit="10" stroke-linecap="round" stroke-linejoin="round"/>
<path d="M109.785 90.8029L97.1777 105.613" stroke="black" stroke-miterlimit="10" stroke-linecap="round" stroke-linejoin="round"/>
<path d="M161.171 88.5311L150.439 101.887" stroke="black" stroke-miterlimit="10" stroke-linecap="round" stroke-linejoin="round"/>
<path d="M163.835 85.2156L162.129 87.336" stroke="black" stroke-miterlimit="10" stroke-linecap="round" stroke-linejoin="round"/>
<path d="M138.772 111.625L136.576 114.21" stroke="black" stroke-miterlimit="10" stroke-linecap="round" stroke-linejoin="round"/>
<path d="M153.024 94.8779L140.417 109.692" stroke="black" stroke-miterlimit="10" stroke-linecap="round" stroke-linejoin="round"/>
<path d="M166.129 20.5453L160.992 26.9389" stroke="black" stroke-miterlimit="10" stroke-linecap="round" stroke-linejoin="round"/>
<path d="M167.403 18.9576L166.586 19.9764" stroke="black" stroke-miterlimit="10" stroke-linecap="round" stroke-linejoin="round"/>
<path d="M155.408 31.6008L154.354 32.8356" stroke="black" stroke-miterlimit="10" stroke-linecap="round" stroke-linejoin="round"/>
<path d="M162.231 23.5836L156.193 30.6756" stroke="black" stroke-miterlimit="10" stroke-linecap="round" stroke-linejoin="round"/>
<path d="M146.084 20.5453L140.947 26.9389" stroke="black" stroke-miterlimit="10" stroke-linecap="round" stroke-linejoin="round"/>
<path d="M147.359 18.9576L146.542 19.9764" stroke="black" stroke-miterlimit="10" stroke-linecap="round" stroke-linejoin="round"/>
<path d="M135.364 31.6008L134.312 32.8356" stroke="black" stroke-miterlimit="10" stroke-linecap="round" stroke-linejoin="round"/>
<path d="M142.186 23.5836L136.152 30.6756" stroke="black" stroke-miterlimit="10" stroke-linecap="round" stroke-linejoin="round"/>
<path d="M146.084 44.4961L140.947 50.8897" stroke="black" stroke-miterlimit="10" stroke-linecap="round" stroke-linejoin="round"/>
<path d="M147.359 42.9084L146.542 43.9272" stroke="black" stroke-miterlimit="10" stroke-linecap="round" stroke-linejoin="round"/>
<path d="M135.364 55.5516L134.312 56.7864" stroke="black" stroke-miterlimit="10" stroke-linecap="round" stroke-linejoin="round"/>
<path d="M142.186 47.5344L136.152 54.6264" stroke="black" stroke-miterlimit="10" stroke-linecap="round" stroke-linejoin="round"/>
<path d="M163.961 44.4961L158.824 50.8897" stroke="black" stroke-miterlimit="10" stroke-linecap="round" stroke-linejoin="round"/>
<path d="M165.236 42.9084L164.419 43.9272" stroke="black" stroke-miterlimit="10" stroke-linecap="round" stroke-linejoin="round"/>
<path d="M153.241 55.5516L152.189 56.7864" stroke="black" stroke-miterlimit="10" stroke-linecap="round" stroke-linejoin="round"/>
<path d="M160.063 47.5344L154.029 54.6264" stroke="black" stroke-miterlimit="10" stroke-linecap="round" stroke-linejoin="round"/>
<path d="M123.872 20.5453L118.734 26.9389" stroke="black" stroke-miterlimit="10" stroke-linecap="round" stroke-linejoin="round"/>
<path d="M125.146 18.9576L124.329 19.9764" stroke="black" stroke-miterlimit="10" stroke-linecap="round" stroke-linejoin="round"/>
<path d="M113.151 31.6008L112.1 32.8356" stroke="black" stroke-miterlimit="10" stroke-linecap="round" stroke-linejoin="round"/>
<path d="M119.973 23.5836L113.939 30.6756" stroke="black" stroke-miterlimit="10" stroke-linecap="round" stroke-linejoin="round"/>
<path d="M123.872 43.938L118.734 50.3316" stroke="black" stroke-miterlimit="10" stroke-linecap="round" stroke-linejoin="round"/>
<path d="M125.146 42.354L124.329 43.3692" stroke="black" stroke-miterlimit="10" stroke-linecap="round" stroke-linejoin="round"/>
<path d="M113.151 54.9937L112.1 56.2321" stroke="black" stroke-miterlimit="10" stroke-linecap="round" stroke-linejoin="round"/>
<path d="M119.973 46.98L113.939 54.0684" stroke="black" stroke-miterlimit="10" stroke-linecap="round" stroke-linejoin="round"/>
<path d="M104.372 43.938L99.2344 50.3316" stroke="black" stroke-miterlimit="10" stroke-linecap="round" stroke-linejoin="round"/>
<path d="M105.645 42.354L104.828 43.3692" stroke="black" stroke-miterlimit="10" stroke-linecap="round" stroke-linejoin="round"/>
<path d="M93.6469 54.9937L92.5957 56.2321" stroke="black" stroke-miterlimit="10" stroke-linecap="round" stroke-linejoin="round"/>
<path d="M100.469 46.98L94.4355 54.0684" stroke="black" stroke-miterlimit="10" stroke-linecap="round" stroke-linejoin="round"/>
<path d="M103.013 20.5453L97.8799 26.9389" stroke="black" stroke-miterlimit="10" stroke-linecap="round" stroke-linejoin="round"/>
<path d="M104.291 18.9576L103.474 19.9764" stroke="black" stroke-miterlimit="10" stroke-linecap="round" stroke-linejoin="round"/>
<path d="M92.2924 31.6008L91.2412 32.8356" stroke="black" stroke-miterlimit="10" stroke-linecap="round" stroke-linejoin="round"/>
<path d="M99.1147 23.5836L93.0811 30.6756" stroke="black" stroke-miterlimit="10" stroke-linecap="round" stroke-linejoin="round"/>
</g>
<path d="M44.4599 123.739C44.4599 123.739 40.5107 121.543 40.2155 126.518C39.9239 131.494 39.1895 163.829 39.1895 163.829" stroke="#263238" stroke-miterlimit="10" stroke-linecap="round"/>
<path d="M38.1631 126.958C38.1631 126.958 41.3851 134.129 39.9235 163.39" stroke="#263238" stroke-miterlimit="10" stroke-linecap="round"/>
<path d="M41.3316 124.74C41.3316 124.74 39.8196 125.708 38.9592 124.6C38.0988 123.491 39.5424 121.46 38.2716 120.593C37.0008 119.725 34.8084 121.05 34.8084 121.05C34.8084 121.05 36.4968 121.547 36.4428 122.468C36.3888 123.39 35.5752 123.739 35.4672 123.336C35.3592 122.933 34.5528 120.902 33.1812 121.748C31.8096 122.594 31.6008 123.901 31.6008 123.901C31.6008 123.901 34.794 123.559 34.9884 124.762C35.1828 125.964 33.678 124.553 32.3604 124.474C31.0428 124.394 29.8404 124.589 29.9268 125.388C30.0132 126.187 29.8008 127.494 29.8008 127.494C29.8008 127.494 30.9168 126.504 32.364 126.587C33.8112 126.673 33.7572 127.595 32.4396 127.516C31.122 127.436 29.9916 128.693 29.9916 128.693C29.9916 128.693 31.194 130.745 32.7168 131.76C34.2432 132.775 34.794 132.412 34.9704 131.63C35.1504 130.849 34.74 128.84 35.6616 128.894C36.5832 128.948 34.1352 132.372 35.3124 132.574C36.4896 132.775 37.4364 132.433 37.746 131.659C38.0556 130.885 38.0556 130.885 38.0556 130.885C38.0556 130.885 37.6452 128.88 37.8252 128.095C38.0052 127.314 38.2212 128.117 38.43 129.056C38.6388 129.992 38.772 132.25 39.1716 132.142C39.5748 132.034 40.86 130.392 41.1624 129.748C41.4648 129.103 39.4668 127.138 39.4884 126.742C39.51 126.346 41.0544 127.098 41.292 127.508C41.5332 127.919 41.7636 128.462 41.7636 128.462C41.7636 128.462 42.7248 127.858 42.7032 126.007C42.6852 124.16 41.3316 124.74 41.3316 124.74Z" fill="#92E3A9"/>
<path opacity="0.3" d="M41.3316 124.74C41.3316 124.74 39.8196 125.708 38.9592 124.6C38.0988 123.491 39.5424 121.46 38.2716 120.593C37.0008 119.725 34.8084 121.05 34.8084 121.05C34.8084 121.05 36.4968 121.547 36.4428 122.468C36.3888 123.39 35.5752 123.739 35.4672 123.336C35.3592 122.933 34.5528 120.902 33.1812 121.748C31.8096 122.594 31.6008 123.901 31.6008 123.901C31.6008 123.901 34.794 123.559 34.9884 124.762C35.1828 125.964 33.678 124.553 32.3604 124.474C31.0428 124.394 29.8404 124.589 29.9268 125.388C30.0132 126.187 29.8008 127.494 29.8008 127.494C29.8008 127.494 30.9168 126.504 32.364 126.587C33.8112 126.673 33.7572 127.595 32.4396 127.516C31.122 127.436 29.9916 128.693 29.9916 128.693C29.9916 128.693 31.194 130.745 32.7168 131.76C34.2432 132.775 34.794 132.412 34.9704 131.63C35.1504 130.849 34.74 128.84 35.6616 128.894C36.5832 128.948 34.1352 132.372 35.3124 132.574C36.4896 132.775 37.4364 132.433 37.746 131.659C38.0556 130.885 38.0556 130.885 38.0556 130.885C38.0556 130.885 37.6452 128.88 37.8252 128.095C38.0052 127.314 38.2212 128.117 38.43 129.056C38.6388 129.992 38.772 132.25 39.1716 132.142C39.5748 132.034 40.86 130.392 41.1624 129.748C41.4648 129.103 39.4668 127.138 39.4884 126.742C39.51 126.346 41.0544 127.098 41.292 127.508C41.5332 127.919 41.7636 128.462 41.7636 128.462C41.7636 128.462 42.7248 127.858 42.7032 126.007C42.6852 124.16 41.3316 124.74 41.3316 124.74Z" fill="#263238"/>
<path d="M33.6709 129.085C34.6573 127.868 36.1081 126.22 37.3249 125.431" stroke="#263238" stroke-miterlimit="10" stroke-linecap="round"/>
<path d="M32.5264 130.568C32.5264 130.568 32.7784 130.216 33.1888 129.69" stroke="#263238" stroke-miterlimit="10" stroke-linecap="round"/>
<path d="M37.9658 125.734C37.9658 125.734 39.431 127.804 39.701 129.935" stroke="#263238" stroke-miterlimit="10" stroke-linecap="round"/>
<path d="M36.3096 126.958C36.3096 126.958 36.72 126.716 36.5652 129.352" stroke="#263238" stroke-miterlimit="10" stroke-linecap="round"/>
<path d="M37.3789 124.51C37.3789 124.51 38.2141 123.764 37.7749 122.285" stroke="#263238" stroke-miterlimit="10" stroke-linecap="round"/>
<path d="M36.248 125.762L35.6504 124.672" stroke="#263238" stroke-miterlimit="10" stroke-linecap="round"/>
<path d="M34.9924 126.878C34.9924 126.878 33.0952 125.446 31.9072 125.374" stroke="#263238" stroke-miterlimit="10" stroke-linecap="round"/>
<path d="M46.7174 120.838C46.7174 120.838 46.6562 123.012 44.9606 123.116C43.265 123.221 42.2138 120.395 40.4786 121.075C38.7434 121.756 38.5742 124.855 38.5742 124.855C38.5742 124.855 40.223 123.502 41.1086 124.186C41.9942 124.87 41.789 125.921 41.3102 125.755C40.8314 125.59 38.2502 125.01 38.1602 126.961C38.0702 128.909 39.2402 130.014 39.2402 130.014C39.2402 130.014 41.0762 126.587 42.4082 127.21C43.7438 127.836 41.3066 128.38 40.331 129.643C39.3554 130.91 38.729 132.242 39.5858 132.703C40.4426 133.16 41.6126 134.266 41.6126 134.266C41.6126 134.266 41.3822 132.473 42.455 131.08C43.5278 129.686 44.4134 130.37 43.4378 131.638C42.4622 132.905 42.9482 134.892 42.9482 134.892C42.9482 134.892 45.821 135.09 47.8802 134.255C49.9358 133.42 49.9466 132.62 49.2842 131.908C48.6218 131.195 46.3322 130.237 47.0162 129.352C47.7002 128.466 49.457 133.25 50.4614 132.21C51.4658 131.17 51.7682 129.989 51.2066 129.15C50.6414 128.311 50.6414 128.311 50.6414 128.311C50.6414 128.311 48.3518 127.354 47.6894 126.641C47.027 125.928 47.981 126.263 49.0646 126.691C50.1446 127.12 52.4918 128.527 52.6574 128.048C52.823 127.57 52.0562 125.165 51.617 124.423C51.1778 123.682 47.8442 124.34 47.4662 124.049C47.0882 123.757 48.8918 122.724 49.4642 122.764C50.0402 122.803 50.7422 122.94 50.7422 122.94C50.7422 122.94 50.7926 121.565 48.9242 120.326C47.0594 119.084 46.7174 120.838 46.7174 120.838Z" fill="#92E3A9"/>
<path opacity="0.2" d="M46.7174 120.838C46.7174 120.838 46.6562 123.012 44.9606 123.116C43.265 123.221 42.2138 120.395 40.4786 121.075C38.7434 121.756 38.5742 124.855 38.5742 124.855C38.5742 124.855 40.223 123.502 41.1086 124.186C41.9942 124.87 41.789 125.921 41.3102 125.755C40.8314 125.59 38.2502 125.01 38.1602 126.961C38.0702 128.909 39.2402 130.014 39.2402 130.014C39.2402 130.014 41.0762 126.587 42.4082 127.21C43.7438 127.836 41.3066 128.38 40.331 129.643C39.3554 130.91 38.729 132.242 39.5858 132.703C40.4426 133.16 41.6126 134.266 41.6126 134.266C41.6126 134.266 41.3822 132.473 42.455 131.08C43.5278 129.686 44.4134 130.37 43.4378 131.638C42.4622 132.905 42.9482 134.892 42.9482 134.892C42.9482 134.892 45.821 135.09 47.8802 134.255C49.9358 133.42 49.9466 132.62 49.2842 131.908C48.6218 131.195 46.3322 130.237 47.0162 129.352C47.7002 128.466 49.457 133.25 50.4614 132.21C51.4658 131.17 51.7682 129.989 51.2066 129.15C50.6414 128.311 50.6414 128.311 50.6414 128.311C50.6414 128.311 48.3518 127.354 47.6894 126.641C47.027 125.928 47.981 126.263 49.0646 126.691C50.1446 127.12 52.4918 128.527 52.6574 128.048C52.823 127.57 52.0562 125.165 51.617 124.423C51.1778 123.682 47.8442 124.34 47.4662 124.049C47.0882 123.757 48.8918 122.724 49.4642 122.764C50.0402 122.803 50.7422 122.94 50.7422 122.94C50.7422 122.94 50.7926 121.565 48.9242 120.326C47.0594 119.084 46.7174 120.838 46.7174 120.838Z" fill="#263238"/>
<path d="M45.8422 131.468C45.295 129.65 44.6326 127.073 44.6758 125.32" stroke="#263238" stroke-miterlimit="10" stroke-linecap="round"/>
<path d="M46.5485 133.621C46.5485 133.621 46.3685 133.128 46.1201 132.358" stroke="#263238" stroke-miterlimit="10" stroke-linecap="round"/>
<path d="M45.418 124.88C45.418 124.88 48.4888 124.826 50.8072 126.007" stroke="#263238" stroke-miterlimit="10" stroke-linecap="round"/>
<path d="M45.5117 127.375C45.5117 127.375 45.5513 126.799 48.0821 128.75" stroke="#263238" stroke-miterlimit="10" stroke-linecap="round"/>
<path d="M43.7904 124.636C43.7904 124.636 43.6176 123.289 41.832 122.724" stroke="#263238" stroke-miterlimit="10" stroke-linecap="round"/>
<path d="M44.2766 126.623L42.7754 126.475" stroke="#263238" stroke-miterlimit="10" stroke-linecap="round"/>
<path d="M44.5359 128.642C44.5359 128.642 41.8071 129.564 40.9287 130.705" stroke="#263238" stroke-miterlimit="10" stroke-linecap="round"/>
<path d="M28.5117 135.299C28.5117 135.299 37.1445 141.005 36.9969 163.098" stroke="#263238" stroke-miterlimit="10" stroke-linecap="round"/>
<path d="M39.1535 133.79C39.1535 133.79 38.8799 136.292 36.9107 136.253C34.9415 136.213 33.9983 132.854 31.9319 133.474C29.8655 134.096 29.3795 137.653 29.3795 137.653C29.3795 137.653 31.4099 136.249 32.3675 137.12C33.3251 137.992 32.9903 139.187 32.4539 138.949C31.9175 138.712 28.9943 137.801 28.7063 140.044C28.4183 142.283 29.6639 143.665 29.6639 143.665C29.6639 143.665 32.1047 139.882 33.5843 140.731C35.0639 141.577 32.2019 141.977 30.9563 143.345C29.7107 144.713 28.8647 146.196 29.8079 146.804C30.7547 147.416 31.9967 148.795 31.9967 148.795C31.9967 148.795 31.8995 146.704 33.2675 145.199C34.6391 143.694 35.5967 144.565 34.3511 145.933C33.1055 147.301 33.4799 149.641 33.4799 149.641C33.4799 149.641 36.7775 150.142 39.2291 149.371C41.6807 148.601 41.7707 147.679 41.0723 146.797C40.3739 145.912 37.8251 144.594 38.6963 143.633C39.5675 142.675 41.1479 148.363 42.4043 147.258C43.6607 146.149 44.1215 144.821 43.5527 143.798C42.9803 142.776 42.9803 142.776 42.9803 142.776C42.9803 142.776 40.4279 141.455 39.7331 140.573C39.0347 139.687 40.1075 140.162 41.3135 140.76C42.5195 141.358 45.0971 143.201 45.3347 142.664C45.5723 142.128 44.9135 139.277 44.4779 138.384C44.0423 137.488 40.1327 137.934 39.7223 137.56C39.3119 137.185 41.4899 136.166 42.1487 136.267C42.8075 136.368 43.6031 136.591 43.6031 136.591C43.6031 136.591 43.7903 135.011 41.7491 133.405C39.7151 131.8 39.1535 133.79 39.1535 133.79Z" fill="#92E3A9"/>
<path opacity="0.3" d="M39.1535 133.79C39.1535 133.79 38.8799 136.292 36.9107 136.253C34.9415 136.213 33.9983 132.854 31.9319 133.474C29.8655 134.096 29.3795 137.653 29.3795 137.653C29.3795 137.653 31.4099 136.249 32.3675 137.12C33.3251 137.992 32.9903 139.187 32.4539 138.949C31.9175 138.712 28.9943 137.801 28.7063 140.044C28.4183 142.283 29.6639 143.665 29.6639 143.665C29.6639 143.665 32.1047 139.882 33.5843 140.731C35.0639 141.577 32.2019 141.977 30.9563 143.345C29.7107 144.713 28.8647 146.196 29.8079 146.804C30.7547 147.416 31.9967 148.795 31.9967 148.795C31.9967 148.795 31.8995 146.704 33.2675 145.199C34.6391 143.694 35.5967 144.565 34.3511 145.933C33.1055 147.301 33.4799 149.641 33.4799 149.641C33.4799 149.641 36.7775 150.142 39.2291 149.371C41.6807 148.601 41.7707 147.679 41.0723 146.797C40.3739 145.912 37.8251 144.594 38.6963 143.633C39.5675 142.675 41.1479 148.363 42.4043 147.258C43.6607 146.149 44.1215 144.821 43.5527 143.798C42.9803 142.776 42.9803 142.776 42.9803 142.776C42.9803 142.776 40.4279 141.455 39.7331 140.573C39.0347 139.687 40.1075 140.162 41.3135 140.76C42.5195 141.358 45.0971 143.201 45.3347 142.664C45.5723 142.128 44.9135 139.277 44.4779 138.384C44.0423 137.488 40.1327 137.934 39.7223 137.56C39.3119 137.185 41.4899 136.166 42.1487 136.267C42.8075 136.368 43.6031 136.591 43.6031 136.591C43.6031 136.591 43.7903 135.011 41.7491 133.405C39.7151 131.8 39.1535 133.79 39.1535 133.79Z" fill="#263238"/>
<path d="M37.1411 145.976C36.6803 143.827 36.1619 140.792 36.3743 138.769" stroke="#263238" stroke-miterlimit="10" stroke-linecap="round"/>
<path d="M37.7533 148.529C37.7533 148.529 37.5913 147.942 37.3789 147.031" stroke="#263238" stroke-miterlimit="10" stroke-linecap="round"/>
<path d="M37.2744 138.334C37.2744 138.334 40.8204 138.56 43.3836 140.141" stroke="#263238" stroke-miterlimit="10" stroke-linecap="round"/>
<path d="M37.1484 141.221C37.1484 141.221 37.2492 140.562 39.9852 143.053" stroke="#263238" stroke-miterlimit="10" stroke-linecap="round"/>
<path d="M35.42 137.898C35.42 137.898 35.3444 136.328 33.3428 135.508" stroke="#263238" stroke-miterlimit="10" stroke-linecap="round"/>
<path d="M35.7914 140.238L34.0742 139.925" stroke="#263238" stroke-miterlimit="10" stroke-linecap="round"/>
<path d="M35.9029 142.589C35.9029 142.589 32.6665 143.395 31.5469 144.626" stroke="#263238" stroke-miterlimit="10" stroke-linecap="round"/>
<path d="M31.8779 152.712C31.8779 152.712 37.4363 156.956 38.0231 163.246L36.8531 142.175" stroke="#263238" stroke-miterlimit="10" stroke-linecap="round"/>
<path d="M45.3386 149.638C38.0234 148.32 38.0234 163.246 38.0234 163.246" stroke="#263238" stroke-miterlimit="10" stroke-linecap="round"/>
<path d="M38.8978 163.098C38.8978 163.098 34.6534 132.224 46.9438 132.224" stroke="#263238" stroke-miterlimit="10" stroke-linecap="round"/>
<path d="M42.5482 148.752C41.5474 147.629 39.427 147.629 38.1778 150.502C36.9286 153.374 38.0518 152.874 38.0518 152.874C38.0518 152.874 40.4242 152.125 41.9254 151.625C43.423 151.124 45.4246 149.875 45.547 150.624C45.673 151.373 44.5462 152.122 43.1746 152.374C41.7994 152.622 38.1778 153.623 38.5522 154.372C38.9266 155.12 39.8014 157.37 39.8014 157.37C39.8014 157.37 41.551 155.873 43.1746 154.872C44.7982 153.871 45.799 154.249 44.9242 155.372C44.0494 156.496 41.551 157.745 42.0514 159.246C42.5518 160.744 45.5506 162.619 45.5506 162.619C45.5506 162.619 45.925 159.498 46.7998 158.497C47.6746 157.496 47.6746 158.623 47.4262 160.369C47.1778 162.119 47.1778 162.619 47.1778 162.619L50.677 163.868C50.677 163.868 51.9262 161.996 52.549 161.37C53.1718 160.744 53.1718 160.744 53.1718 160.744C53.1718 160.744 50.425 158.371 50.299 156.87C50.173 155.372 52.171 156.87 52.7974 157.118C53.4202 157.367 54.421 159.116 54.421 159.116C54.421 159.116 55.0438 156.244 55.1698 155.243C55.2958 154.242 55.2958 154.242 55.2958 154.242C55.2958 154.242 52.6714 153.241 51.6742 153.241C50.6734 153.241 50.1766 153.99 50.1766 152.993C50.1766 151.992 51.1774 151.369 52.3006 151.495C53.4238 151.621 55.2994 152.244 55.2994 152.244C55.2994 152.244 56.0482 151.621 55.7998 149.746C55.5514 147.874 54.925 147.874 53.4274 148.37C51.9298 148.871 50.929 149.994 49.8058 149.994C48.6826 149.994 49.3054 148.619 50.0542 148.244C50.803 147.87 52.6786 147.121 53.053 146.995C53.4274 146.869 51.055 145.123 49.8058 144.871C48.5566 144.623 46.9402 145.501 47.059 146.743C47.2966 149.375 43.549 149.875 42.5482 148.752Z" fill="#92E3A9"/>
<path d="M50.5908 161.611C50.6268 161.989 50.6556 162.364 50.67 162.742" stroke="#263238" stroke-miterlimit="10" stroke-linecap="round"/>
<path d="M48.0811 152.644C48.9595 154.67 49.9711 157.468 50.4319 160.384" stroke="#263238" stroke-miterlimit="10" stroke-linecap="round"/>
<path d="M47.6315 151.643C47.0123 150.311 46.5479 149.501 46.5479 149.501C46.5479 149.501 47.6711 149 48.1715 148.003C48.6719 147.002 49.4206 146.506 49.4206 146.506" stroke="#263238" stroke-miterlimit="10" stroke-linecap="round"/>
<path d="M42.1738 153.749C42.1738 153.749 46.6702 151.877 46.6702 152.251" stroke="#263238" stroke-miterlimit="10" stroke-linecap="round"/>
<path d="M49.1689 151.373C49.1689 151.373 51.1669 150.372 52.9165 150.372" stroke="#263238" stroke-miterlimit="10" stroke-linecap="round"/>
<path d="M48.4199 154.372C48.4199 154.372 47.2967 155.247 46.0475 156.744C44.7983 158.242 44.2979 159.617 44.2979 159.617" stroke="#263238" stroke-miterlimit="10" stroke-linecap="round"/>
<path d="M49.7949 154.872C49.7949 154.872 52.4193 154.123 53.7909 155.372" stroke="#263238" stroke-miterlimit="10" stroke-linecap="round"/>
<path d="M54.5472 137.992C53.1864 137.189 51.6816 137.171 50.9472 136.321C50.2092 135.472 51.6564 135.043 52.4304 135.364C53.2044 135.684 55.0008 136.609 55.3392 136.807C55.6776 137.009 55.4436 134.071 54.8136 132.962C54.1836 131.854 52.4592 131.209 51.5988 132.116C49.7808 134.024 46.9476 131.522 47.142 130.032C47.3364 128.542 45.9432 126.936 42.9552 127.876C39.9672 128.815 41.0796 129.337 41.0796 129.337C41.0796 129.337 43.2 130.637 44.5608 131.443C45.9216 132.246 48.1752 132.937 47.6892 133.524C47.2068 134.111 45.9036 133.751 44.8128 132.88C43.722 132.005 40.5936 129.924 40.2732 130.698C39.9528 131.472 38.8296 133.607 38.8296 133.607C38.8296 133.607 41.1084 133.945 42.9264 134.518C44.7444 135.09 45.1188 136.091 43.6968 136.166C42.2748 136.242 39.6936 135.176 38.8908 136.537C38.088 137.898 38.6352 141.39 38.6352 141.39C38.6352 141.39 41.238 139.626 42.5664 139.63C43.8948 139.633 43.0452 140.371 41.562 141.329C40.0788 142.286 39.7008 142.614 39.7008 142.614L41.0508 146.074C41.0508 146.074 43.2864 145.789 44.1648 145.85C45.0468 145.912 45.0468 145.912 45.0468 145.912C45.0468 145.912 45.036 142.279 46.0872 141.203C47.1384 140.126 47.3148 142.618 47.538 143.255C47.7576 143.892 47.0916 145.793 47.0916 145.793C47.0916 145.793 49.6692 144.382 50.508 143.82C51.3432 143.258 51.3432 143.258 51.3432 143.258C51.3432 143.258 50.3784 140.623 49.7232 139.867C49.068 139.111 48.1752 139.226 48.9276 138.571C49.6836 137.916 50.8104 138.262 51.4512 139.19C52.0956 140.123 52.8516 141.944 52.8516 141.944C52.8516 141.944 53.8128 142.099 55.0656 140.684C56.3148 139.27 55.908 138.798 54.5472 137.992ZM42.7248 141.991C41.724 141.491 44.1 140.494 44.1 140.494C44.9748 140.368 43.7256 142.492 42.7248 141.991ZM44.406 137.329C43.9812 137.117 45.2592 136.692 45.2592 136.692C47.106 137.045 44.8344 137.542 44.406 137.329Z" fill="#92E3A9"/>
<path d="M42.6993 144.536C42.4401 144.81 42.1737 145.08 41.8965 145.336" stroke="#263238" stroke-miterlimit="10" stroke-linecap="round"/>
<path d="M47.8264 136.764C46.8688 138.755 45.4252 141.354 43.5244 143.615" stroke="#263238" stroke-miterlimit="10" stroke-linecap="round"/>
<path d="M48.2871 135.767C48.8847 134.428 49.1943 133.542 49.1943 133.542C49.1943 133.542 50.3103 134.064 51.3903 133.787C52.4739 133.51 53.3415 133.747 53.3415 133.747" stroke="#263238" stroke-miterlimit="10" stroke-linecap="round"/>
<path d="M43.1211 133.024C43.1211 133.024 47.4843 135.191 47.1999 135.436" stroke="#263238" stroke-miterlimit="10" stroke-linecap="round"/>
<path d="M49.5 136.753C49.5 136.753 51.5664 137.606 52.7112 138.928" stroke="#263238" stroke-miterlimit="10" stroke-linecap="round"/>
<path d="M46.7427 138.15C46.7427 138.15 45.3459 137.873 43.3947 137.912C41.4435 137.952 40.0791 138.474 40.0791 138.474" stroke="#263238" stroke-miterlimit="10" stroke-linecap="round"/>
<path d="M47.2676 139.514C47.2676 139.514 49.5536 141.005 49.5104 142.859" stroke="#263238" stroke-miterlimit="10" stroke-linecap="round"/>
<path d="M35.1355 155.3C34.0411 154.652 32.8315 154.638 32.2375 153.954C31.6435 153.27 32.8099 152.924 33.4327 153.184C34.0555 153.443 35.4991 154.184 35.7727 154.346C36.0463 154.508 35.8555 152.143 35.3515 151.254C34.8439 150.365 33.4579 149.843 32.7631 150.574C31.3015 152.111 29.0191 150.095 29.1775 148.896C29.3323 147.697 28.2127 146.405 25.8079 147.161C23.4031 147.917 24.2995 148.338 24.2995 148.338C24.2995 148.338 26.0059 149.386 27.1003 150.034C28.1947 150.682 30.0091 151.236 29.6203 151.708C29.2315 152.179 28.1839 151.891 27.3055 151.189C26.4271 150.487 23.9107 148.813 23.6515 149.436C23.3923 150.059 22.4887 151.776 22.4887 151.776C22.4887 151.776 24.3211 152.05 25.7863 152.507C27.2515 152.968 27.5503 153.77 26.4055 153.832C25.2607 153.893 23.1835 153.032 22.5355 154.127C21.8875 155.221 22.3303 158.033 22.3303 158.033C22.3303 158.033 24.4255 156.614 25.4947 156.618C26.5639 156.622 25.8799 157.216 24.6847 157.986C23.4895 158.756 23.1871 159.019 23.1871 159.019L24.2743 161.802C24.2743 161.802 26.0707 161.572 26.7799 161.622C27.4891 161.672 27.4891 161.672 27.4891 161.672C27.4891 161.672 27.4819 158.749 28.3279 157.885C29.1739 157.018 29.3179 159.023 29.4943 159.534C29.6707 160.045 29.1379 161.575 29.1379 161.575C29.1379 161.575 31.2151 160.438 31.8883 159.988C32.5615 159.538 32.5615 159.538 32.5615 159.538C32.5615 159.538 31.7839 157.417 31.2583 156.809C30.7327 156.2 30.0127 156.294 30.6211 155.765C31.2295 155.239 32.1367 155.516 32.6515 156.265C33.1663 157.014 33.7783 158.483 33.7783 158.483C33.7783 158.483 34.5523 158.609 35.5603 157.468C36.5683 156.326 36.2299 155.948 35.1355 155.3ZM25.6207 158.519C24.8179 158.116 26.7259 157.313 26.7259 157.313C27.4315 157.212 26.4271 158.922 25.6207 158.519ZM26.9779 154.768C26.6359 154.595 27.6619 154.253 27.6619 154.253C29.1487 154.537 27.3199 154.937 26.9779 154.768Z" fill="#92E3A9"/>
<path d="M25.5995 160.567C25.3907 160.787 25.1747 161.003 24.9551 161.212" stroke="#263238" stroke-miterlimit="10" stroke-linecap="round"/>
<path d="M29.7249 154.31C28.9545 155.912 27.7917 158.004 26.2617 159.822" stroke="#263238" stroke-miterlimit="10" stroke-linecap="round"/>
<path d="M30.0986 153.508C30.581 152.431 30.8294 151.718 30.8294 151.718C30.8294 151.718 31.7258 152.14 32.597 151.913C33.4682 151.69 34.1666 151.88 34.1666 151.88" stroke="#263238" stroke-miterlimit="10" stroke-linecap="round"/>
<path d="M25.9414 151.304C25.9414 151.304 29.4514 153.05 29.2246 153.245" stroke="#263238" stroke-miterlimit="10" stroke-linecap="round"/>
<path d="M31.0742 154.303C31.0742 154.303 32.7374 154.991 33.659 156.053" stroke="#263238" stroke-miterlimit="10" stroke-linecap="round"/>
<path d="M28.8575 155.43C28.8575 155.43 27.7343 155.207 26.1647 155.239C24.5951 155.272 23.4971 155.693 23.4971 155.693" stroke="#263238" stroke-miterlimit="10" stroke-linecap="round"/>
<path d="M29.2783 156.528C29.2783 156.528 31.1179 157.727 31.0819 159.221" stroke="#263238" stroke-miterlimit="10" stroke-linecap="round"/>
<path d="M30.6718 134.676C30.6718 134.676 29.2966 135.677 28.4218 134.676C27.547 133.675 28.7962 131.677 27.547 130.928C26.2978 130.18 24.2998 131.551 24.2998 131.551C24.2998 131.551 25.9234 131.926 25.9234 132.8C25.9234 133.675 25.1746 134.05 25.0486 133.675C24.9226 133.301 24.0478 131.425 22.7986 132.3C21.5494 133.175 21.4234 134.424 21.4234 134.424C21.4234 134.424 24.4222 133.924 24.6706 135.047C24.919 136.17 23.4214 134.921 22.1722 134.921C20.923 134.921 19.7998 135.169 19.9222 135.922C20.0482 136.67 19.9222 137.92 19.9222 137.92C19.9222 137.92 20.923 136.919 22.2946 136.919C23.6698 136.919 23.6698 137.794 22.4206 137.794C21.1714 137.794 20.1706 139.043 20.1706 139.043C20.1706 139.043 21.4198 140.915 22.9174 141.79C24.415 142.664 24.9154 142.29 25.0414 141.541C25.1674 140.792 24.667 138.917 25.5418 138.917C26.4166 138.917 24.2926 142.29 25.4158 142.416C26.539 142.542 27.4138 142.168 27.6658 141.415C27.9142 140.666 27.9142 140.666 27.9142 140.666C27.9142 140.666 27.4138 138.794 27.5398 138.042C27.6658 137.293 27.9142 138.042 28.1626 138.917C28.411 139.792 28.663 141.916 29.0374 141.79C29.4118 141.664 30.535 140.04 30.787 139.417C31.0354 138.794 29.0374 137.045 29.0374 136.67C29.0374 136.296 30.535 136.919 30.787 137.293C31.0354 137.668 31.2874 138.168 31.2874 138.168C31.2874 138.168 32.1622 137.545 32.0362 135.796C31.9102 134.046 30.6718 134.676 30.6718 134.676Z" fill="#92E3A9"/>
<path d="M23.6768 139.205C24.5408 137.999 25.8224 136.361 26.9276 135.547" stroke="#263238" stroke-miterlimit="10" stroke-linecap="round"/>
<path d="M22.6797 140.67C22.6797 140.67 22.8993 140.324 23.2557 139.802" stroke="#263238" stroke-miterlimit="10" stroke-linecap="round"/>
<path d="M27.5508 135.799C27.5508 135.799 29.0484 137.671 29.4228 139.673" stroke="#263238" stroke-miterlimit="10" stroke-linecap="round"/>
<path d="M26.0527 137.048C26.0527 137.048 26.4271 136.8 26.4271 139.298" stroke="#263238" stroke-miterlimit="10" stroke-linecap="round"/>
<path d="M26.9238 134.676C26.9238 134.676 27.6726 133.927 27.1722 132.552" stroke="#263238" stroke-miterlimit="10" stroke-linecap="round"/>
<path d="M25.9272 135.925L25.3008 134.924" stroke="#263238" stroke-miterlimit="10" stroke-linecap="round"/>
<path d="M24.8035 137.048C24.8035 137.048 22.9315 135.799 21.8047 135.799" stroke="#263238" stroke-miterlimit="10" stroke-linecap="round"/>
<path d="M43.2861 162.662H33.6309V167.76H43.2861V162.662Z" fill="#263238" stroke="#263238" stroke-width="2" stroke-miterlimit="10" stroke-linecap="round"/>
<path opacity="0.2" d="M160.96 165.488H69.8005C67.7125 165.488 66.0205 163.796 66.0205 161.708V51.228C66.0205 49.14 67.7125 47.448 69.8005 47.448H160.96C163.048 47.448 164.74 49.14 164.74 51.228V161.708C164.74 163.796 163.048 165.488 160.96 165.488Z" fill="black"/>
<path d="M158.08 168.008H66.9206C64.8326 168.008 63.1406 166.316 63.1406 164.228V53.748C63.1406 51.66 64.8326 49.968 66.9206 49.968H158.08C160.168 49.968 161.86 51.66 161.86 53.748V164.228C161.86 166.316 160.168 168.008 158.08 168.008Z" fill="#E3E3E3" stroke="#263238" stroke-miterlimit="10" stroke-linecap="round" stroke-linejoin="round"/>
<path d="M147.434 49.968H73.8535V168.008H147.434V49.968Z" fill="white" stroke="#263238" stroke-miterlimit="10" stroke-linecap="round" stroke-linejoin="round"/>
<path d="M158.58 50.2452V168.239C160.423 168.034 161.86 166.471 161.86 164.574V53.91C161.86 52.0128 160.423 50.4504 158.58 50.2452Z" fill="#B2B2B2" stroke="#263238" stroke-miterlimit="10" stroke-linecap="round" stroke-linejoin="round"/>
<path d="M161.86 96.0084H158.58V114.512H161.86V96.0084Z" fill="#808080" stroke="#263238" stroke-miterlimit="10" stroke-linecap="round" stroke-linejoin="round"/>
<path d="M161.86 65.466V53.91C161.86 51.8724 160.207 50.22 158.17 50.22H66.8267C64.7891 50.22 63.1367 51.8724 63.1367 53.91V65.466H161.86Z" fill="#B2B2B2" stroke="#263238" stroke-miterlimit="10" stroke-linecap="round" stroke-linejoin="round"/>
<path d="M110.556 56.1959H68.5547V58.9895H110.556V56.1959Z" fill="white" stroke="#263238" stroke-miterlimit="10" stroke-linecap="round" stroke-linejoin="round"/>
<path d="M161.86 60.4908H63.1406V65.466H161.86V60.4908Z" fill="#263238" stroke="#263238" stroke-miterlimit="10" stroke-linecap="round" stroke-linejoin="round"/>
<path d="M65.4268 61.7797H67.9972" stroke="white" stroke-miterlimit="10" stroke-linecap="round" stroke-linejoin="round"/>
<path d="M65.4268 62.8993H67.9972" stroke="white" stroke-miterlimit="10" stroke-linecap="round" stroke-linejoin="round"/>
<path d="M65.4268 64.0153H67.9972" stroke="white" stroke-miterlimit="10" stroke-linecap="round" stroke-linejoin="round"/>
<path d="M78.707 61.7365V64.638" stroke="white" stroke-miterlimit="10" stroke-linecap="round" stroke-linejoin="round"/>
<path d="M93.8379 61.7365V64.638" stroke="white" stroke-miterlimit="10" stroke-linecap="round" stroke-linejoin="round"/>
<path d="M108.969 61.7365V64.638" stroke="white" stroke-miterlimit="10" stroke-linecap="round" stroke-linejoin="round"/>
<path d="M124.096 61.7365V64.638" stroke="white" stroke-miterlimit="10" stroke-linecap="round" stroke-linejoin="round"/>
<path d="M139.227 61.7365V64.638" stroke="white" stroke-miterlimit="10" stroke-linecap="round" stroke-linejoin="round"/>
<path d="M161.86 54.522V53.91C161.86 51.8724 160.207 50.22 158.17 50.22H66.8267C64.7891 50.22 63.1367 51.8724 63.1367 53.91V54.522H161.86Z" fill="#263238" stroke="#263238" stroke-miterlimit="10" stroke-linecap="round" stroke-linejoin="round"/>
<path d="M147.74 53.4852C148.349 53.4852 148.842 52.992 148.842 52.3836C148.842 51.7752 148.349 51.282 147.74 51.282C147.132 51.282 146.639 51.7752 146.639 52.3836C146.639 52.992 147.132 53.4852 147.74 53.4852Z" fill="white" stroke="#263238" stroke-miterlimit="10" stroke-linecap="round" stroke-linejoin="round"/>
<path d="M151.214 53.4852C151.822 53.4852 152.316 52.992 152.316 52.3836C152.316 51.7752 151.822 51.282 151.214 51.282C150.606 51.282 150.112 51.7752 150.112 52.3836C150.112 52.992 150.606 53.4852 151.214 53.4852Z" fill="white" stroke="#263238" stroke-miterlimit="10" stroke-linecap="round" stroke-linejoin="round"/>
<path d="M155.79 52.3836C155.79 51.7752 155.297 51.282 154.689 51.282C154.08 51.282 153.587 51.7752 153.587 52.3836C153.587 52.992 154.08 53.4852 154.689 53.4852C155.297 53.4852 155.79 52.992 155.79 52.3836Z" fill="white" stroke="#263238" stroke-miterlimit="10" stroke-linecap="round" stroke-linejoin="round"/>
<path d="M63.1406 161.118V164.574C63.1406 166.612 64.793 168.264 66.8306 168.264H158.173C160.211 168.264 161.863 166.612 161.863 164.574V161.118H63.1406Z" fill="#B2B2B2" stroke="#263238" stroke-miterlimit="10" stroke-linecap="round" stroke-linejoin="round"/>
<path d="M139 72.6406H80.9893V105.159H139V72.6406Z" fill="#92E3A9" stroke="#263238" stroke-miterlimit="10" stroke-linecap="round" stroke-linejoin="round"/>
<path d="M138.996 90.877L126.034 82.5298L112.847 95.7127L103.619 84.9458L81.5999 104.793L80.9893 105.163H138.996V90.877Z" fill="white" stroke="#263238" stroke-miterlimit="10" stroke-linecap="round" stroke-linejoin="round"/>
<path d="M89.9962 84.7243C92.5447 84.7243 94.6107 82.6584 94.6107 80.1099C94.6107 77.5614 92.5447 75.4955 89.9962 75.4955C87.4478 75.4955 85.3818 77.5614 85.3818 80.1099C85.3818 82.6584 87.4478 84.7243 89.9962 84.7243Z" fill="white" stroke="#263238" stroke-miterlimit="10" stroke-linecap="round" stroke-linejoin="round"/>
<path d="M81 107H139" stroke="#263238" stroke-miterlimit="10"/>
<path d="M81 110H116" stroke="#263238" stroke-miterlimit="10"/>
<path d="M131.598 114.93H138.994" stroke="#263238" stroke-miterlimit="10"/>
<path d="M122.796 114.93H130.742" stroke="#263238" stroke-miterlimit="10"/>
<path d="M119.632 114.93H121.941" stroke="#263238" stroke-miterlimit="10"/>
<path d="M108.777 114.93H119.033" stroke="#263238" stroke-miterlimit="10"/>
<path d="M95.4424 114.93H107.667" stroke="#263238" stroke-miterlimit="10"/>
<path d="M85.7012 114.93H94.1628" stroke="#263238" stroke-miterlimit="10"/>
<path d="M81.0684 114.93H84.5874" stroke="#263238" stroke-miterlimit="10"/>
<path d="M88.4652 117.987H81.0684" stroke="#263238" stroke-miterlimit="10"/>
<path d="M97.2705 117.987H89.3203" stroke="#263238" stroke-miterlimit="10"/>
<path d="M100.435 117.987H98.126" stroke="#263238" stroke-miterlimit="10"/>
<path d="M111.29 117.987H101.03" stroke="#263238" stroke-miterlimit="10"/>
<path d="M124.622 117.987H112.4" stroke="#263238" stroke-miterlimit="10"/>
<path d="M134.365 117.987H125.903" stroke="#263238" stroke-miterlimit="10"/>
<path d="M138.996 117.987H135.477" stroke="#263238" stroke-miterlimit="10"/>
<path d="M131.598 120.911H138.994" stroke="#263238" stroke-miterlimit="10"/>
<path d="M122.796 120.911H130.742" stroke="#263238" stroke-miterlimit="10"/>
<path d="M119.632 120.911H121.941" stroke="#263238" stroke-miterlimit="10"/>
<path d="M108.777 120.911H119.033" stroke="#263238" stroke-miterlimit="10"/>
<path d="M95.4424 120.911H107.667" stroke="#263238" stroke-miterlimit="10"/>
<path d="M85.7012 120.911H94.1628" stroke="#263238" stroke-miterlimit="10"/>
<path d="M81.0684 120.911H84.5874" stroke="#263238" stroke-miterlimit="10"/>
<path d="M88.4652 123.968H81.0684" stroke="#263238" stroke-miterlimit="10"/>
<path d="M97.2705 123.968H89.3203" stroke="#263238" stroke-miterlimit="10"/>
<path d="M100.435 123.968H98.126" stroke="#263238" stroke-miterlimit="10"/>
<path d="M111.29 123.968H101.03" stroke="#263238" stroke-miterlimit="10"/>
<path d="M124.622 123.968H112.4" stroke="#263238" stroke-miterlimit="10"/>
<path d="M134.365 123.968H125.903" stroke="#263238" stroke-miterlimit="10"/>
<path d="M138.996 123.968H135.477" stroke="#263238" stroke-miterlimit="10"/>
<path d="M131.598 126.891H138.994" stroke="#263238" stroke-miterlimit="10"/>
<path d="M122.796 126.891H130.742" stroke="#263238" stroke-miterlimit="10"/>
<path d="M119.632 126.891H121.941" stroke="#263238" stroke-miterlimit="10"/>
<path d="M108.777 126.891H119.033" stroke="#263238" stroke-miterlimit="10"/>
<path d="M95.4424 126.891H107.667" stroke="#263238" stroke-miterlimit="10"/>
<path d="M85.7012 126.891H94.1628" stroke="#263238" stroke-miterlimit="10"/>
<path d="M81.0684 126.891H84.5874" stroke="#263238" stroke-miterlimit="10"/>
<path d="M88.4652 129.948H81.0684" stroke="#263238" stroke-miterlimit="10"/>
<path d="M97.2705 129.948H89.3203" stroke="#263238" stroke-miterlimit="10"/>
<path d="M100.435 129.948H98.126" stroke="#263238" stroke-miterlimit="10"/>
<path d="M111.29 129.948H101.03" stroke="#263238" stroke-miterlimit="10"/>
<path d="M124.622 129.948H112.4" stroke="#263238" stroke-miterlimit="10"/>
<path d="M134.365 129.948H125.903" stroke="#263238" stroke-miterlimit="10"/>
<path d="M138.996 129.948H135.477" stroke="#263238" stroke-miterlimit="10"/>
<path d="M131.598 132.872H138.994" stroke="#263238" stroke-miterlimit="10"/>
<path d="M122.796 132.872H130.742" stroke="#263238" stroke-miterlimit="10"/>
<path d="M119.632 132.872H121.941" stroke="#263238" stroke-miterlimit="10"/>
<path d="M108.777 132.872H119.033" stroke="#263238" stroke-miterlimit="10"/>
<path d="M95.4424 132.872H107.667" stroke="#263238" stroke-miterlimit="10"/>
<path d="M85.7012 132.872H94.1628" stroke="#263238" stroke-miterlimit="10"/>
<path d="M81.0684 132.872H84.5874" stroke="#263238" stroke-miterlimit="10"/>
<path d="M88.4652 135.926H81.0684" stroke="#263238" stroke-miterlimit="10"/>
<path d="M97.2705 135.926H89.3203" stroke="#263238" stroke-miterlimit="10"/>
<path d="M100.435 135.926H98.126" stroke="#263238" stroke-miterlimit="10"/>
<path d="M111.29 135.926H101.03" stroke="#263238" stroke-miterlimit="10"/>
<path d="M124.622 135.926H112.4" stroke="#263238" stroke-miterlimit="10"/>
<path d="M134.365 135.926H125.903" stroke="#263238" stroke-miterlimit="10"/>
<path d="M138.996 135.926H135.477" stroke="#263238" stroke-miterlimit="10"/>
<path d="M131.598 138.849H138.994" stroke="#263238" stroke-miterlimit="10"/>
<path d="M122.796 138.849H130.742" stroke="#263238" stroke-miterlimit="10"/>
<path d="M119.632 138.849H121.941" stroke="#263238" stroke-miterlimit="10"/>
<path d="M108.777 138.849H119.033" stroke="#263238" stroke-miterlimit="10"/>
<path d="M95.4424 138.849H107.667" stroke="#263238" stroke-miterlimit="10"/>
<path d="M85.7012 138.849H94.1628" stroke="#263238" stroke-miterlimit="10"/>
<path d="M81.0684 138.849H84.5874" stroke="#263238" stroke-miterlimit="10"/>
<path d="M88.4652 141.906H81.0684" stroke="#263238" stroke-miterlimit="10"/>
<path d="M97.2705 141.906H89.3203" stroke="#263238" stroke-miterlimit="10"/>
<path d="M100.435 141.906H98.126" stroke="#263238" stroke-miterlimit="10"/>
<path d="M111.29 141.906H101.03" stroke="#263238" stroke-miterlimit="10"/>
<path d="M124.622 141.906H112.4" stroke="#263238" stroke-miterlimit="10"/>
<path d="M134.365 141.906H125.903" stroke="#263238" stroke-miterlimit="10"/>
<path d="M138.996 141.906H135.477" stroke="#263238" stroke-miterlimit="10"/>
<path d="M131.598 144.83H138.994" stroke="#263238" stroke-miterlimit="10"/>
<path d="M122.796 144.83H130.742" stroke="#263238" stroke-miterlimit="10"/>
<path d="M119.632 144.83H121.941" stroke="#263238" stroke-miterlimit="10"/>
<path d="M108.777 144.83H119.033" stroke="#263238" stroke-miterlimit="10"/>
<path d="M95.4424 144.83H107.667" stroke="#263238" stroke-miterlimit="10"/>
<path d="M85.7012 144.83H94.1628" stroke="#263238" stroke-miterlimit="10"/>
<path d="M81.0684 144.83H84.5874" stroke="#263238" stroke-miterlimit="10"/>
<path d="M88.4652 147.887H81.0684" stroke="#263238" stroke-miterlimit="10"/>
<path d="M97.2705 147.887H89.3203" stroke="#263238" stroke-miterlimit="10"/>
<path d="M100.435 147.887H98.126" stroke="#263238" stroke-miterlimit="10"/>
<path d="M111.29 147.887H101.03" stroke="#263238" stroke-miterlimit="10"/>
<path d="M124.622 147.887H112.4" stroke="#263238" stroke-miterlimit="10"/>
<path d="M134.365 147.887H125.903" stroke="#263238" stroke-miterlimit="10"/>
<path d="M138.996 147.887H135.477" stroke="#263238" stroke-miterlimit="10"/>
<path d="M131.598 150.811H138.994" stroke="#263238" stroke-miterlimit="10"/>
<path d="M122.796 150.811H130.742" stroke="#263238" stroke-miterlimit="10"/>
<path d="M119.632 150.811H121.941" stroke="#263238" stroke-miterlimit="10"/>
<path d="M108.777 150.811H119.033" stroke="#263238" stroke-miterlimit="10"/>
<path d="M95.4424 150.811H107.667" stroke="#263238" stroke-miterlimit="10"/>
<path d="M85.7012 150.811H94.1628" stroke="#263238" stroke-miterlimit="10"/>
<path d="M81.0684 150.811H84.5874" stroke="#263238" stroke-miterlimit="10"/>
<path d="M88.4652 153.868H81.0684" stroke="#263238" stroke-miterlimit="10"/>
<path d="M97.2705 153.868H89.3203" stroke="#263238" stroke-miterlimit="10"/>
<path d="M100.435 153.868H98.126" stroke="#263238" stroke-miterlimit="10"/>
<path d="M111.29 153.868H101.03" stroke="#263238" stroke-miterlimit="10"/>
<path d="M124.622 153.868H112.4" stroke="#263238" stroke-miterlimit="10"/>
<path d="M134.365 153.868H125.903" stroke="#263238" stroke-miterlimit="10"/>
<path d="M138.996 153.868H135.477" stroke="#263238" stroke-miterlimit="10"/>
<path d="M53.7704 144.281C53.7452 144.86 53.8172 145.48 54.0584 146.092C54.944 148.309 55.2032 149.224 54.8432 151.024" stroke="#263238" stroke-miterlimit="10" stroke-linecap="round"/>
<path d="M54.6268 141.448C54.6268 141.448 54.2452 142.063 53.9932 142.963" stroke="#263238" stroke-miterlimit="10" stroke-linecap="round"/>
<path d="M57.799 141.448C57.799 141.448 56.3266 143.824 57.2338 146.088C58.1194 148.306 58.3786 149.22 58.0186 151.02" stroke="#263238" stroke-miterlimit="10" stroke-linecap="round"/>
<path d="M61.3413 149.713C61.3341 150.113 61.2837 150.534 61.1865 151.02" stroke="#263238" stroke-miterlimit="10" stroke-linecap="round"/>
<path d="M60.967 141.448C60.967 141.448 59.4946 143.824 60.4018 146.088C60.7258 146.898 60.967 147.532 61.1218 148.1" stroke="#263238" stroke-miterlimit="10" stroke-linecap="round"/>
<path d="M63.6882 155.819C63.6882 155.819 65.157 154.35 66.2262 155.552C67.2954 156.755 66.8922 162.763 65.9598 164.632C65.0238 166.5 62.8818 164.729 62.8818 164.729L62.889 163.429C62.889 163.429 63.8466 164.315 64.9158 163.246C65.985 162.176 65.6934 157.954 65.2938 157.284C64.8942 156.618 63.2922 157.55 63.2922 157.55L63.6882 155.819Z" fill="white" stroke="#263238" stroke-miterlimit="10" stroke-linecap="round" stroke-linejoin="round"/>
<path d="M62.8599 170.431H52.7115L51.4443 152.622H64.1271L62.8599 170.431Z" fill="white" stroke="#263238" stroke-miterlimit="10" stroke-linecap="round" stroke-linejoin="round"/>
</svg>
