<svg width="18" height="16" viewBox="0 0 18 16" fill="none" xmlns="http://www.w3.org/2000/svg">
<path d="M12.7493 0.5C11.2993 0.5 9.90768 1.175 8.99935 2.24167C8.09102 1.175 6.69935 0.5 5.24935 0.5C2.68268 0.5 0.666016 2.51667 0.666016 5.08333C0.666016 8.23333 3.49935 10.8 7.79102 14.7L8.99935 15.7917L10.2077 14.6917C14.4993 10.8 17.3327 8.23333 17.3327 5.08333C17.3327 2.51667 15.316 0.5 12.7493 0.5ZM9.08268 13.4583L8.99935 13.5417L8.91602 13.4583C4.94935 9.86667 2.33268 7.49167 2.33268 5.08333C2.33268 3.41667 3.58268 2.16667 5.24935 2.16667C6.53268 2.16667 7.78268 2.99167 8.22435 4.13333H9.78268C10.216 2.99167 11.466 2.16667 12.7493 2.16667C14.416 2.16667 15.666 3.41667 15.666 5.08333C15.666 7.49167 13.0494 9.86667 9.08268 13.4583Z" fill="white"/>
</svg>
