<svg width="18" height="18" viewBox="0 0 18 18" fill="none" xmlns="http://www.w3.org/2000/svg">
<path d="M8.9915 0.666626C4.3915 0.666626 0.666504 4.39996 0.666504 8.99996C0.666504 13.6 4.3915 17.3333 8.9915 17.3333C13.5998 17.3333 17.3332 13.6 17.3332 8.99996C17.3332 4.39996 13.5998 0.666626 8.9915 0.666626ZM8.99984 15.6666C5.3165 15.6666 2.33317 12.6833 2.33317 8.99996C2.33317 5.31663 5.3165 2.33329 8.99984 2.33329C12.6832 2.33329 15.6665 5.31663 15.6665 8.99996C15.6665 12.6833 12.6832 15.6666 8.99984 15.6666ZM8.8165 4.83329H8.7665C8.43317 4.83329 8.1665 5.09996 8.1665 5.43329V9.36663C8.1665 9.65829 8.3165 9.93329 8.57484 10.0833L12.0332 12.1583C12.3165 12.325 12.6832 12.2416 12.8498 11.9583C13.0248 11.675 12.9332 11.3 12.6415 11.1333L9.4165 9.21663V5.43329C9.4165 5.09996 9.14984 4.83329 8.8165 4.83329Z" fill="#666666"/>
</svg>
