<svg width="20" height="20" viewBox="0 0 20 20" fill="none" xmlns="http://www.w3.org/2000/svg">
<g clip-path="url(#clip0_301_1892)">
<path d="M10.7329 4.20781C13.3829 4.54115 15.4579 6.61615 15.7912 9.26615C15.8412 9.69115 16.1995 9.99948 16.6162 9.99948C16.6495 9.99948 16.6829 9.99948 16.7162 9.99115C17.1745 9.93281 17.4995 9.51615 17.4412 9.05781C17.0162 5.64948 14.3412 2.97448 10.9329 2.54948C10.4745 2.49948 10.0579 2.82448 10.0079 3.28281C9.94955 3.74115 10.2745 4.15781 10.7329 4.20781V4.20781ZM11.0495 5.96615C10.6079 5.84948 10.1495 6.11615 10.0329 6.56615C9.91621 7.01615 10.1829 7.46615 10.6329 7.58281C11.5079 7.80781 12.1912 8.49115 12.4245 9.37448C12.5245 9.74948 12.8579 9.99948 13.2329 9.99948C13.2995 9.99948 13.3745 9.99115 13.4412 9.97448C13.8829 9.85781 14.1495 9.39948 14.0412 8.95781C13.6495 7.48281 12.5079 6.34115 11.0495 5.96615ZM16.0245 12.7161L13.9079 12.4745C13.3995 12.4161 12.8995 12.5911 12.5412 12.9495L11.0079 14.4828C8.64955 13.2828 6.71621 11.3578 5.51621 8.99115L7.05788 7.44948C7.41621 7.09115 7.59121 6.59115 7.53288 6.08281L7.29121 3.98281C7.19121 3.14115 6.48288 2.50781 5.63288 2.50781H4.19121C3.24955 2.50781 2.46621 3.29115 2.52455 4.23281C2.96621 11.3495 8.65788 17.0328 15.7662 17.4745C16.7079 17.5328 17.4912 16.7495 17.4912 15.8078V14.3661C17.4995 13.5245 16.8662 12.8161 16.0245 12.7161V12.7161Z" fill="white"/>
</g>
<defs>
<clipPath id="clip0_301_1892">
<rect width="20" height="20" fill="white"/>
</clipPath>
</defs>
</svg>
