<svg width="16" height="16" viewBox="0 0 16 16" fill="none" xmlns="http://www.w3.org/2000/svg">
<path d="M8.73288 2.2083C11.3829 2.54163 13.4579 4.61663 13.7912 7.26663C13.8412 7.69163 14.1995 7.99997 14.6162 7.99997C14.6495 7.99997 14.6829 7.99997 14.7162 7.99163C15.1745 7.9333 15.4995 7.51663 15.4412 7.0583C15.0162 3.64997 12.3412 0.974967 8.93288 0.549967C8.47455 0.499967 8.05788 0.824967 8.00788 1.2833C7.94955 1.74163 8.27455 2.1583 8.73288 2.2083ZM9.04955 3.96663C8.60788 3.84997 8.14955 4.11663 8.03288 4.56663C7.91621 5.01663 8.18288 5.46663 8.63288 5.5833C9.50788 5.8083 10.1912 6.49163 10.4245 7.37497C10.5245 7.74997 10.8579 7.99997 11.2329 7.99997C11.2995 7.99997 11.3745 7.99163 11.4412 7.97497C11.8829 7.8583 12.1495 7.39997 12.0412 6.9583C11.6495 5.4833 10.5079 4.34163 9.04955 3.96663ZM14.0245 10.7166L11.9079 10.475C11.3995 10.4166 10.8995 10.5916 10.5412 10.95L9.00788 12.4833C6.64955 11.2833 4.71621 9.3583 3.51621 6.99163L5.05788 5.44997C5.41621 5.09163 5.59121 4.59163 5.53288 4.0833L5.29121 1.9833C5.19121 1.14163 4.48288 0.508301 3.63288 0.508301H2.19121C1.24955 0.508301 0.466212 1.29163 0.524546 2.2333C0.966212 9.34997 6.65788 15.0333 13.7662 15.475C14.7079 15.5333 15.4912 14.75 15.4912 13.8083V12.3666C15.4995 11.525 14.8662 10.8166 14.0245 10.7166Z" fill="#333333"/>
</svg>
