<svg width="20" height="20" viewBox="0 0 20 20" fill="none" xmlns="http://www.w3.org/2000/svg">
<g clip-path="url(#clip0_842_5966)">
<path d="M10.7329 4.2083C13.3829 4.54163 15.4579 6.61663 15.7912 9.26663C15.8412 9.69163 16.1995 9.99997 16.6162 9.99997C16.6495 9.99997 16.6829 9.99997 16.7162 9.99163C17.1745 9.9333 17.4995 9.51663 17.4412 9.0583C17.0162 5.64997 14.3412 2.97497 10.9329 2.54997C10.4745 2.49997 10.0579 2.82497 10.0079 3.2833C9.94955 3.74163 10.2745 4.1583 10.7329 4.2083ZM11.0495 5.96663C10.6079 5.84997 10.1495 6.11663 10.0329 6.56663C9.91621 7.01663 10.1829 7.46663 10.6329 7.5833C11.5079 7.8083 12.1912 8.49163 12.4245 9.37497C12.5245 9.74997 12.8579 9.99997 13.2329 9.99997C13.2995 9.99997 13.3745 9.99163 13.4412 9.97497C13.8829 9.8583 14.1495 9.39997 14.0412 8.9583C13.6495 7.4833 12.5079 6.34163 11.0495 5.96663ZM16.0245 12.7166L13.9079 12.475C13.3995 12.4166 12.8995 12.5916 12.5412 12.95L11.0079 14.4833C8.64955 13.2833 6.71621 11.3583 5.51621 8.99163L7.05788 7.44997C7.41621 7.09163 7.59121 6.59163 7.53288 6.0833L7.29121 3.9833C7.19121 3.14163 6.48288 2.5083 5.63288 2.5083H4.19121C3.24955 2.5083 2.46621 3.29163 2.52455 4.2333C2.96621 11.35 8.65788 17.0333 15.7662 17.475C16.7079 17.5333 17.4912 16.75 17.4912 15.8083V14.3666C17.4995 13.525 16.8662 12.8166 16.0245 12.7166Z" fill="white"/>
</g>
<defs>
<clipPath id="clip0_842_5966">
<rect width="20" height="20" fill="white"/>
</clipPath>
</defs>
</svg>
