<svg width="18" height="18" viewBox="0 0 18 18" fill="none" xmlns="http://www.w3.org/2000/svg">
<path d="M17.0918 15.9084L14.0002 12.8417C15.2002 11.3454 15.7814 9.44613 15.6242 7.53446C15.4669 5.62279 14.5832 3.84403 13.1548 2.56391C11.7263 1.2838 9.86167 0.599634 7.94427 0.652101C6.02686 0.704568 4.20243 1.48968 2.84612 2.84599C1.4898 4.20231 0.70469 6.02674 0.652223 7.94415C0.599756 9.86155 1.28392 11.7262 2.56403 13.1546C3.84415 14.5831 5.62292 15.4668 7.53458 15.6241C9.44625 15.7813 11.3455 15.2001 12.8418 14L15.9085 17.0667C15.986 17.1448 16.0781 17.2068 16.1797 17.2491C16.2812 17.2914 16.3902 17.3132 16.5002 17.3132C16.6102 17.3132 16.7191 17.2914 16.8206 17.2491C16.9222 17.2068 17.0144 17.1448 17.0918 17.0667C17.242 16.9113 17.326 16.7037 17.326 16.4875C17.326 16.2714 17.242 16.0638 17.0918 15.9084ZM8.16683 14C7.01311 14 5.88529 13.6579 4.926 13.0169C3.96672 12.376 3.21904 11.4649 2.77753 10.399C2.33602 9.33313 2.2205 8.16024 2.44558 7.02868C2.67066 5.89713 3.22624 4.85773 4.04204 4.04192C4.85785 3.22611 5.89725 2.67054 7.0288 2.44546C8.16036 2.22038 9.33325 2.3359 10.3992 2.77741C11.4651 3.21892 12.3761 3.9666 13.0171 4.92588C13.658 5.88517 14.0002 7.01299 14.0002 8.16671C14.0002 9.71381 13.3856 11.1975 12.2916 12.2915C11.1977 13.3855 9.71393 14 8.16683 14Z" fill="#717171"/>
</svg>
