<svg width="20" height="20" viewBox="0 0 20 20" fill="none" xmlns="http://www.w3.org/2000/svg">
<path d="M6.25882 7.99534C6.41116 7.82175 6.40527 7.55691 6.24024 7.39093C6.06865 7.21832 5.7904 7.21832 5.61878 7.39093L5.4031 7.60786V5.83145C5.4031 5.40089 5.75137 5.0506 6.17945 5.0506C6.60753 5.0506 6.95581 5.40089 6.95581 5.83145C6.95581 6.07555 7.15256 6.27344 7.39525 6.27344C7.63795 6.27344 7.8347 6.07555 7.8347 5.83145C7.8347 4.91347 7.09215 4.16663 6.17945 4.16663C5.26675 4.16663 4.5242 4.91347 4.5242 5.83145V7.60786L4.30852 7.39093C4.13693 7.21832 3.85868 7.21832 3.68706 7.39093C3.52203 7.55691 3.51617 7.82172 3.66849 7.99534H6.25882Z" fill="#343434"/>
<path d="M17.0606 8.87927H16.5618H3.44299H2.93945C2.69675 8.87927 2.5 9.07717 2.5 9.32126C2.5 9.56536 2.69675 9.76325 2.93945 9.76325H3.10477C3.3324 10.63 3.56044 11.4966 3.78898 12.3631C4.06627 13.4143 4.79104 14.2222 5.73145 14.6091L5.32523 15.1128C5.17233 15.3024 5.20122 15.5807 5.38968 15.7345C5.4711 15.8009 5.56898 15.8332 5.66624 15.8332C5.79412 15.8332 5.92094 15.7773 6.00778 15.6697L6.67424 14.8433C6.78703 14.8545 6.90126 14.8608 7.01707 14.8608H12.9841C13.1011 14.8608 13.2164 14.8543 13.3302 14.843L13.997 15.6697C14.0838 15.7774 14.2106 15.8333 14.3385 15.8333C14.4358 15.8333 14.5337 15.8009 14.6151 15.7345C14.8036 15.5807 14.8324 15.3024 14.6795 15.1128L14.2724 14.6081C15.2119 14.2206 15.9357 13.4129 16.2125 12.3621C16.4594 11.4248 16.685 10.571 16.8993 9.76328H17.0606C17.3032 9.76328 17.5 9.56539 17.5 9.32129C17.5 9.07719 17.3033 8.87927 17.0606 8.87927Z" fill="#343434"/>
</svg>
