<svg width="20" height="20" viewBox="0 0 20 20" fill="none" xmlns="http://www.w3.org/2000/svg">
<path d="M7.50002 3.25V2.74999C7.50002 2.61191 7.38811 2.5 7.25003 2.5H2.75002C2.61194 2.5 2.5 2.61191 2.5 2.74999V3.25C2.5 3.38808 2.61191 3.49999 2.74999 3.49999H7.25C7.38811 3.49999 7.50002 3.38808 7.50002 3.25Z" fill="#343434"/>
<path d="M10.0854 13.445C8.72539 12.9325 7.73286 11.8125 7.54038 10.4725C7.52629 10.3453 7.41839 10.2493 7.29039 10.25H3.79034C3.65229 10.2482 3.53892 10.3587 3.53713 10.4968C3.53695 10.5113 3.53801 10.5257 3.54032 10.54C3.75032 11.695 4.82283 12.2 5.50032 12.73C6.45282 13.48 7.15782 14.7301 6.80283 17.21C6.78074 17.3463 6.87329 17.4747 7.00958 17.4968C7.02388 17.4991 7.03835 17.5002 7.05282 17.5H9.36034C9.45339 17.5007 9.53911 17.4497 9.58285 17.3675C10.1253 16.3 10.2504 14.98 10.2504 13.68C10.2503 13.5748 10.1843 13.4808 10.0854 13.445Z" fill="#343434"/>
<path d="M7 9.50001V5.75H7.50001C7.63809 5.75 7.75 5.63808 7.75 5.5C7.75 5.36193 7.63809 5.25001 7.50001 5.25001H7V4.24999C7 4.11191 6.88806 4 6.75001 4H3.24999C3.11191 4 3 4.11191 3 4.24999V9.50001C3 9.63808 3.11191 9.75 3.24999 9.75H6.75001C6.88809 9.75003 7 9.63808 7 9.50001Z" fill="#343434"/>
<path d="M13.75 13.935C13.7512 13.7969 13.6402 13.684 13.5022 13.6829C13.4906 13.6828 13.479 13.6835 13.4675 13.685C13.2304 13.7252 12.9905 13.7469 12.75 13.75H11.75C11.5089 13.7495 11.2682 13.7303 11.03 13.6925C10.8931 13.6745 10.7676 13.7709 10.7496 13.9078C10.7481 13.9193 10.7474 13.9309 10.7475 13.9425C10.7425 15.0422 10.5427 16.1324 10.1575 17.1625C10.1092 17.2918 10.1748 17.4358 10.3041 17.4842C10.3308 17.4941 10.359 17.4995 10.3875 17.5H14.1125C14.2506 17.4987 14.3615 17.3858 14.3602 17.2477C14.3599 17.2168 14.3539 17.1862 14.3425 17.1575C13.9563 16.1267 13.7557 15.0357 13.75 13.935Z" fill="#343434"/>
<path d="M17.125 9H7.875C7.6679 9 7.5 9.1679 7.5 9.375C7.5 9.5821 7.6679 9.75 7.875 9.75H17.125C17.3321 9.75 17.5 9.5821 17.5 9.375C17.5 9.16787 17.3321 9 17.125 9Z" fill="#343434"/>
<path d="M16.2475 10.255C16.2302 10.2514 16.2125 10.2498 16.1949 10.2499H8.30486C8.16681 10.2471 8.05264 10.3568 8.04986 10.4948C8.04948 10.5133 8.05118 10.5318 8.05487 10.5499C8.35988 12.0799 9.89738 13.2499 11.7499 13.2499H12.7499C14.6024 13.2499 16.1399 12.0799 16.4424 10.5499C16.47 10.4147 16.3827 10.2826 16.2475 10.255Z" fill="#343434"/>
</svg>
