<svg width="19" height="18" viewBox="0 0 19 18" fill="none" xmlns="http://www.w3.org/2000/svg">
<path d="M17.667 0H9.66699C9.11699 0 8.66699 0.45 8.66699 1V2.61C8.66699 2.61 8.66699 2.61 8.67699 2.62L13.677 7.12C14.307 7.68 14.667 8.5 14.667 9.35V10H16.667V12H14.667V14H16.667V16H14.667V18H17.667C18.217 18 18.667 17.55 18.667 17V1C18.667 0.45 18.217 0 17.667 0ZM12.667 4H10.667V2H12.667V4ZM16.667 8H14.667V6H16.667V8ZM16.667 4H14.667V2H16.667V4Z" fill="white"/>
<path d="M12.667 17V9.34998C12.667 9.06998 12.547 8.79998 12.337 8.60998L7.33699 4.10998C7.14699 3.92998 6.90699 3.84998 6.66699 3.84998C6.42699 3.84998 6.18699 3.93998 5.99699 4.10998L0.996992 8.60998C0.786992 8.78998 0.666992 9.05998 0.666992 9.34998V17C0.666992 17.55 1.11699 18 1.66699 18H3.66699C4.21699 18 4.66699 17.55 4.66699 17V13H8.66699V17C8.66699 17.55 9.11699 18 9.66699 18H11.667C12.217 18 12.667 17.55 12.667 17Z" fill="white"/>
</svg>
