<svg width="20" height="18" viewBox="0 0 20 18" fill="none" xmlns="http://www.w3.org/2000/svg">
<path d="M4.7489 10.424C4.5689 10.6799 4.63224 11.0322 4.88803 11.21L5.27462 11.4785C4.64364 12.0873 3.79745 12.4317 2.91365 12.4317H1.8584V11.213C1.8584 10.9023 1.60655 10.6505 1.2959 10.6505C0.985249 10.6505 0.733398 10.9023 0.733398 11.213V16.9505C0.733398 17.2611 0.985249 17.513 1.2959 17.513C1.60655 17.513 1.8584 17.2611 1.8584 16.9505V15.8067H2.62085C4.63955 15.8067 6.61371 14.9579 8.01606 13.3823L8.57878 13.7731C8.83427 13.9515 9.18872 13.8861 9.36441 13.6276L9.74991 13.0617L5.18653 9.80261L4.7489 10.424Z" fill="#333333"/>
<path d="M19.6878 10.474L19.4804 10.3323L15.166 13.7797L16.4005 14.6684C16.6416 14.8419 16.9787 14.7981 17.1666 14.5649L19.8081 11.2919C20.0152 11.0352 19.9576 10.658 19.6878 10.474Z" fill="#333333"/>
<path d="M18.8142 8.51182L7.99812 0.700783C7.51231 0.349857 6.83776 0.441057 6.46246 0.908233L2.90779 5.33268C2.50354 5.83596 2.60558 6.57753 3.13103 6.95279L12.7 13.7862C12.9044 13.9323 13.1813 13.9251 13.378 13.7679L18.836 9.40732C19.126 9.17564 19.116 8.72973 18.8142 8.51182ZM14.8329 9.50654C14.5223 9.50654 14.2704 9.25469 14.2704 8.94404C14.2704 8.63339 14.5223 8.38154 14.8329 8.38154C15.1436 8.38154 15.3954 8.63339 15.3954 8.94404C15.3954 9.25469 15.1436 9.50654 14.8329 9.50654Z" fill="#333333"/>
</svg>
