<svg width="19" height="20" viewBox="0 0 19 20" fill="none" xmlns="http://www.w3.org/2000/svg">
<path d="M16.8156 11.0715H16.1013C15.904 11.0715 15.7441 11.2314 15.7441 11.4287V13.5715C15.7441 13.7688 15.904 13.9287 16.1013 13.9287H16.8156C17.0128 13.9287 17.1727 13.7688 17.1727 13.5715V11.4287C17.1727 11.2314 17.0128 11.0715 16.8156 11.0715Z" fill="#333333"/>
<path d="M16.8156 3.92847H16.1013C15.904 3.92847 15.7441 4.08837 15.7441 4.28561V6.42847C15.7441 6.62571 15.904 6.78561 16.1013 6.78561H16.8156C17.0128 6.78561 17.1727 6.62571 17.1727 6.42847V4.28561C17.1727 4.08837 17.0128 3.92847 16.8156 3.92847Z" fill="#333333"/>
<path d="M10.2187 10.25C10.9471 9.9477 11.2927 9.11242 10.991 8.38386C10.6892 7.6553 9.85417 7.30906 9.12539 7.61031C8.39662 7.91156 8.04979 8.74635 8.35053 9.47534C8.65277 10.2049 9.48894 10.5516 10.2187 10.25Z" fill="#333333"/>
<path d="M2.23145 19.2858C2.23145 19.6803 2.55124 20.0001 2.94573 20.0001H6.45752C6.85201 20.0001 7.1718 19.6803 7.1718 19.2858V18.5715H2.23145V19.2858Z" fill="#333333"/>
<path d="M12.1729 19.2858C12.1729 19.6803 12.4926 20.0001 12.8871 20.0001H16.3989C16.7934 20.0001 17.1132 19.6803 17.1132 19.2858V18.5715H12.1729V19.2858Z" fill="#333333"/>
<path d="M17.5297 0H1.87612C1.28438 0 0.804688 0.479695 0.804688 1.07143V16.7857C0.804688 17.3774 1.28438 17.8571 1.87612 17.8571H17.5297C18.1214 17.8571 18.6011 17.3774 18.6011 16.7857V1.07143C18.6011 0.479695 18.1214 0 17.5297 0ZM17.8868 6.42857C17.8868 7.02031 17.4071 7.5 16.8154 7.5V10.3571C17.4071 10.3571 17.8868 10.8368 17.8868 11.4286V13.5714C17.8868 14.1632 17.4071 14.6429 16.8154 14.6429V15C16.8154 15.5917 16.3357 16.0714 15.744 16.0714H3.60112C3.00938 16.0714 2.52969 15.5917 2.52969 15V11.7857C2.52969 11.5885 2.68959 11.4286 2.88683 11.4286C3.08408 11.4286 3.24397 11.5885 3.24397 11.7857V15C3.24397 15.1972 3.40387 15.3571 3.60112 15.3571H15.744C15.9412 15.3571 16.1011 15.1972 16.1011 15V14.6429C15.5094 14.6429 15.0297 14.1632 15.0297 13.5714V11.4286C15.0297 10.8368 15.5094 10.3571 16.1011 10.3571V7.5C15.5094 7.5 15.0297 7.02031 15.0297 6.42857V4.28571C15.0297 3.69398 15.5094 3.21429 16.1011 3.21429V2.85714C16.1011 2.6599 15.9412 2.5 15.744 2.5H3.60112C3.40387 2.5 3.24397 2.6599 3.24397 2.85714V10C3.24397 10.1972 3.08408 10.3571 2.88683 10.3571C2.68959 10.3571 2.52969 10.1972 2.52969 10V2.85714C2.52969 2.26541 3.00938 1.78571 3.60112 1.78571H15.744C16.3357 1.78571 16.8154 2.26541 16.8154 2.85714V3.21429C17.4071 3.21429 17.8868 3.69398 17.8868 4.28571V6.42857ZM6.10112 3.92857H4.67255V5.35714C4.67255 5.55439 4.51265 5.71429 4.3154 5.71429C4.11816 5.71429 3.95826 5.55439 3.95826 5.35714V3.57143C3.95826 3.37418 4.11816 3.21429 4.3154 3.21429H6.10112C6.29836 3.21429 6.45826 3.37418 6.45826 3.57143C6.45826 3.76867 6.29836 3.92857 6.10112 3.92857ZM8.03255 4.96929C9.92151 4.1868 12.1002 4.84765 13.2361 6.54768C14.3721 8.24771 14.1489 10.5134 12.7032 11.9592C11.2574 13.405 8.99168 13.6281 7.29165 12.4921C5.59162 11.3562 4.93077 9.17754 5.71326 7.28857C6.14545 6.23667 6.98064 5.40147 8.03255 4.96929Z" fill="#333333"/>
<path d="M6.56541 9.82891C6.68387 9.77678 6.82126 9.79282 6.92452 9.87082C7.02779 9.94883 7.08078 10.0766 7.06303 10.2048C7.04528 10.333 6.95956 10.4415 6.83898 10.4886L6.52541 10.6186C6.85576 11.2378 7.3627 11.7448 7.98184 12.0753L8.11184 11.7614C8.15885 11.6408 8.26741 11.5551 8.3956 11.5374C8.5238 11.5196 8.65157 11.5726 8.72957 11.6759C8.80758 11.7791 8.82361 11.9165 8.77148 12.035L8.64184 12.3486C9.31331 12.5528 10.0304 12.5528 10.7018 12.3486L10.5722 12.035C10.5201 11.9165 10.5361 11.7791 10.6141 11.6759C10.6921 11.5726 10.8199 11.5196 10.9481 11.5374C11.0763 11.5551 11.1848 11.6408 11.2318 11.7614L11.3618 12.075C11.9811 11.7446 12.4881 11.2377 12.8186 10.6186L12.5047 10.4886C12.3841 10.4415 12.2984 10.333 12.2807 10.2048C12.2629 10.0766 12.3159 9.94883 12.4192 9.87082C12.5224 9.79282 12.6598 9.77678 12.7783 9.82891L13.0918 9.95855C13.2961 9.28708 13.2961 8.57003 13.0918 7.89855L12.7783 8.0282C12.6598 8.08032 12.5224 8.06429 12.4192 7.98628C12.3159 7.90828 12.2629 7.78051 12.2807 7.65232C12.2984 7.52412 12.3841 7.41556 12.5047 7.36855L12.8183 7.23855C12.4879 6.61933 11.981 6.11227 11.3618 5.78177L11.2318 6.0957C11.1848 6.21628 11.0763 6.30199 10.9481 6.31974C10.8199 6.3375 10.6921 6.28451 10.6141 6.18124C10.5361 6.07797 10.5201 5.94058 10.5722 5.82212L10.7018 5.50855C10.0304 5.30428 9.31331 5.30428 8.64184 5.50855L8.77148 5.82212C8.82361 5.94058 8.80758 6.07797 8.72957 6.18124C8.65157 6.28451 8.5238 6.3375 8.3956 6.31974C8.26741 6.30199 8.15885 6.21628 8.11184 6.0957L7.98184 5.78212C7.36262 6.11248 6.85556 6.61941 6.52505 7.23855L6.83898 7.36855C6.95956 7.41556 7.04528 7.52412 7.06303 7.65232C7.08078 7.78051 7.02779 7.90828 6.92452 7.98628C6.82126 8.06429 6.68387 8.08032 6.56541 8.0282L6.25184 7.89855C6.04756 8.57003 6.04756 9.28708 6.25184 9.95855L6.56541 9.82891ZM8.85113 6.94891C9.94421 6.49561 11.1978 7.01416 11.6513 8.10719C12.1047 9.20022 11.5863 10.4539 10.4934 10.9075C9.40041 11.3611 8.14666 10.8429 7.69291 9.74998C7.24005 8.65665 7.75837 7.40314 8.85113 6.94891Z" fill="#333333"/>
</svg>
