<svg width="17" height="20" viewBox="0 0 17 20" fill="none" xmlns="http://www.w3.org/2000/svg">
<path d="M1.57855 13.5714H0.864258V15.3571H1.57855V13.5714Z" fill="#333333"/>
<path d="M2.28358 19.1966L1.64428 16.0714H0.798501L0.159204 19.1966C0.132524 19.3177 0.161001 19.4444 0.236977 19.5424C0.282563 19.6035 0.353579 19.6405 0.429829 19.6428H2.01291C2.08916 19.6405 2.16018 19.6035 2.20577 19.5424C2.28166 19.4445 2.31014 19.3181 2.28354 19.1971L2.28358 19.1966Z" fill="#333333"/>
<path d="M9.4357 2.14285C10.0274 2.14285 10.5071 1.66316 10.5071 1.07141C10.5071 0.87418 10.667 0.714258 10.8643 0.714258H16.5174C16.3655 0.286523 15.961 0.000507812 15.5071 0H9.4357C8.84398 0 8.36426 0.479688 8.36426 1.07145C8.36426 1.6632 8.84398 2.14285 9.4357 2.14285Z" fill="#333333"/>
<path d="M10.864 3.21445C10.8637 3.0173 10.704 2.85757 10.5068 2.8573H8.00684V3.5716H10.864V3.21445Z" fill="#333333"/>
<path d="M7.29285 3.5716V2.8573H6.22141C3.26414 2.86066 0.867617 5.25714 0.864258 8.21445V12.8573H1.57855V8.5716C1.58164 5.81144 3.8184 3.57468 6.57856 3.5716H7.29285Z" fill="#333333"/>
<path d="M10.5069 4.28589H8.36398C6.78676 4.28769 5.50863 5.56581 5.50684 7.14304H13.364C13.3622 5.56585 12.0841 4.28769 10.5069 4.28589Z" fill="#333333"/>
<path d="M13.364 18.2141H5.50684V19.9998H13.364V18.2141Z" fill="#333333"/>
<path d="M12.7712 1.42859H11.7881L14.191 3.96121C14.334 4.08484 14.5469 4.08199 14.6866 3.95457C14.7548 3.88859 14.7934 3.79785 14.7937 3.703C14.794 3.60812 14.7559 3.51718 14.6882 3.45078L12.7712 1.42859Z" fill="#333333"/>
<path d="M13.364 7.8573H5.50684V17.5002H13.364V7.8573Z" fill="#333333"/>
</svg>
