<svg width="20" height="21" viewBox="0 0 20 21" fill="none" xmlns="http://www.w3.org/2000/svg">
<path d="M15.6403 17.8969H4.35831C2.92073 17.8973 1.75534 19.0627 1.75488 20.5003H18.2437C18.2437 19.0622 17.0783 17.8969 15.6403 17.8969Z" fill="#333333"/>
<path d="M9.99983 5.74805C6.96181 5.74805 4.79297 7.91734 4.79297 11.1037V16.9901H15.2067V11.1037C15.2067 7.91734 13.0392 5.74805 9.99983 5.74805ZM13.4729 12.2764C13.2225 12.2764 13.0192 12.0731 13.0192 11.8227C13.0192 10.1951 12.2199 8.70123 11.1593 8.3483C10.9212 8.26891 10.7923 8.01215 10.8717 7.77399C10.9511 7.53583 11.2079 7.407 11.446 7.48639C12.8832 7.96588 13.9265 9.78951 13.9265 11.8227C13.9265 12.0731 13.7233 12.2764 13.4729 12.2764Z" fill="#333333"/>
<path d="M3.05707 11.4083H0.453638C0.20323 11.4083 0 11.205 0 10.9546C0 10.7042 0.20323 10.501 0.453638 10.501H3.05707C3.30747 10.501 3.5107 10.7042 3.5107 10.9546C3.5107 11.205 3.30747 11.4083 3.05707 11.4083Z" fill="#333333"/>
<path d="M4.75604 6.3867C4.63582 6.3867 4.52014 6.33907 4.43531 6.25379L2.69969 4.51771C2.5255 4.33762 2.53049 4.05047 2.71104 3.87627C2.88705 3.70661 3.16558 3.70661 3.34114 3.87627L5.07676 5.61234C5.25368 5.78971 5.25368 6.07687 5.07676 6.25379C4.99147 6.33907 4.87625 6.3867 4.75604 6.3867Z" fill="#333333"/>
<path d="M9.99954 4.46529C9.74913 4.46529 9.5459 4.26206 9.5459 4.01166V1.40823C9.5459 1.15782 9.74913 0.95459 9.99954 0.95459C10.2499 0.95459 10.4532 1.15782 10.4532 1.40823V4.01166C10.4532 4.26206 10.2499 4.46529 9.99954 4.46529Z" fill="#333333"/>
<path d="M15.3413 6.28808C15.0909 6.28808 14.8877 6.08485 14.8877 5.83445C14.8877 5.71423 14.9353 5.59901 15.0206 5.51372L16.7562 3.77811C16.9331 3.60073 17.2208 3.60073 17.3981 3.77765C17.5755 3.95457 17.5755 4.24218 17.3981 4.41955L15.6621 6.15517C15.5772 6.24045 15.4615 6.28808 15.3413 6.28808Z" fill="#333333"/>
<path d="M19.5463 11.4083H16.9429C16.6925 11.4083 16.4893 11.205 16.4893 10.9546C16.4893 10.7042 16.6925 10.501 16.9429 10.501H19.5463C19.7967 10.501 20 10.7042 20 10.9546C20 11.205 19.7967 11.4083 19.5463 11.4083Z" fill="#333333"/>
</svg>
