<svg width="22" height="20" viewBox="0 0 22 20" fill="none" xmlns="http://www.w3.org/2000/svg">
<path d="M21 8.00005H16.21L11.82 1.43005C11.42 0.840049 10.55 0.840049 10.16 1.43005L5.77 8.00005H1C0.45 8.00005 0 8.45005 0 9.00005C0 9.09005 0.00999996 9.18005 0.04 9.27005L2.58 18.5401C2.81 19.3801 3.58 20 4.5 20H17.5C18.42 20 19.19 19.3801 19.43 18.5401L21.97 9.27005L22 9.00005C22 8.45005 21.55 8.00005 21 8.00005ZM10.99 3.79005L13.8 8.00005H8.18L10.99 3.79005ZM11 16C9.9 16 9 15.1 9 14C9 12.9 9.9 12 11 12C12.1 12 13 12.9 13 14C13 15.1 12.1 16 11 16Z" fill="#343434"/>
</svg>
