<svg width="21" height="18" viewBox="0 0 21 18" fill="none" xmlns="http://www.w3.org/2000/svg">
<path d="M0.810547 0V17.9998H2.16602V14.6928H2.62592V17.98L8.25055 16.75V3.08413L2.62592 1.85404V3.9848H2.16602V1.35547H19.1675V3.9848H18.6678V1.85404L13.0432 3.08413V16.75L18.6678 17.98V14.6928H19.1675V17.9998H20.523V0H0.810547ZM7.30766 9.03248C7.50843 9.03248 7.67125 9.2234 7.67125 9.45894C7.67125 9.69447 7.50843 9.88539 7.30766 9.88539C7.1069 9.88539 6.94404 9.69447 6.94404 9.45894C6.94404 9.2234 7.1069 9.03248 7.30766 9.03248ZM2.62592 5.85937V12.8181H2.16602V5.85937H2.62592ZM13.9859 9.88543C13.7852 9.88543 13.6223 9.69451 13.6223 9.45894C13.6223 9.2234 13.7852 9.03256 13.9859 9.03256C14.1867 9.03256 14.3496 9.2234 14.3496 9.45894C14.3496 9.69451 14.1867 9.88543 13.9859 9.88543ZM19.1675 12.8181H18.6677V5.85937H19.1675V12.8181Z" fill="#333333"/>
</svg>
